<svg width="30" height="30" viewBox="0 0 30 30" fill="none" xmlns="http://www.w3.org/2000/svg">
<path d="M15 0C23.2843 0 30 6.71573 30 15C30 23.2843 23.2843 30 15 30C6.71573 30 0 23.2843 0 15C0 6.71573 6.71573 0 15 0ZM15 1.5C7.54416 1.5 1.5 7.54416 1.5 15C1.5 22.4558 7.54416 28.5 15 28.5C22.4558 28.5 28.5 22.4558 28.5 15C28.5 7.54416 22.4558 1.5 15 1.5ZM12.4697 10.4697C12.7626 10.1768 13.2374 10.1768 13.5303 10.4697C13.8232 10.7626 13.8232 11.2374 13.5303 11.5303L10.8105 14.25H17C17.7867 14.25 18.9503 14.4799 19.9385 15.1914C20.9648 15.9305 21.75 17.1557 21.75 19C21.75 19.4142 21.4142 19.75 21 19.75C20.5858 19.75 20.25 19.4142 20.25 19C20.25 17.6444 19.7017 16.8692 19.0615 16.4082C18.3831 15.9199 17.5465 15.75 17 15.75H10.8105L13.5303 18.4697C13.8232 18.7626 13.8232 19.2374 13.5303 19.5303C13.2374 19.8232 12.7626 19.8232 12.4697 19.5303L8.46973 15.5303C8.17683 15.2374 8.17683 14.7626 8.46973 14.4697L12.4697 10.4697Z" fill="#F0E8DD"/>
</svg>
