<svg width="30" height="30" viewBox="0 0 30 30" fill="none" xmlns="http://www.w3.org/2000/svg">
<path d="M15 0C23.2843 0 30 6.71573 30 15C30 23.2843 23.2843 30 15 30C6.71573 30 0 23.2843 0 15C0 6.71573 6.71573 0 15 0ZM15 1.5C7.54416 1.5 1.5 7.54416 1.5 15C1.5 22.4558 7.54416 28.5 15 28.5C22.4558 28.5 28.5 22.4558 28.5 15C28.5 7.54416 22.4558 1.5 15 1.5ZM16.4697 10.4697C16.7626 10.1768 17.2374 10.1768 17.5303 10.4697L21.5303 14.4697C21.8232 14.7626 21.8232 15.2374 21.5303 15.5303L17.5303 19.5303C17.2374 19.8232 16.7626 19.8232 16.4697 19.5303C16.1768 19.2374 16.1768 18.7626 16.4697 18.4697L19.1895 15.75H13C12.4535 15.75 11.6169 15.9199 10.9385 16.4082C10.2983 16.8692 9.75 17.6444 9.75 19C9.75 19.4142 9.41421 19.75 9 19.75C8.58579 19.75 8.25 19.4142 8.25 19C8.25 17.1557 9.03516 15.9305 10.0615 15.1914C11.0497 14.4799 12.2133 14.25 13 14.25H19.1895L16.4697 11.5303C16.1768 11.2374 16.1768 10.7626 16.4697 10.4697Z" fill="#F0E8DD"/>
</svg>
