<svg width="19" height="19" viewBox="0 0 19 19" fill="none" xmlns="http://www.w3.org/2000/svg">
<path d="M11.6504 6.55078C11.8847 6.31671 12.2648 6.31655 12.499 6.55078C12.7329 6.78501 12.7329 7.16421 12.499 7.39844L8.24902 11.6484C8.13666 11.7608 7.98408 11.824 7.8252 11.8242C7.66618 11.8242 7.51289 11.7608 7.40039 11.6484L5.70117 9.94922C5.46686 9.7149 5.46686 9.3349 5.70117 9.10059C5.93548 8.86665 6.31462 8.86648 6.54883 9.10059L7.82422 10.376L11.6504 6.55078Z" fill="#29390C"/>
<path fill-rule="evenodd" clip-rule="evenodd" d="M9.09961 0C14.1254 0 18.1992 4.07382 18.1992 9.09961C18.1992 14.1254 14.1254 18.1992 9.09961 18.1992C4.07382 18.1992 0 14.1254 0 9.09961C0 4.07382 4.07382 0 9.09961 0ZM9.09961 1.19922C4.73656 1.19922 1.19922 4.73656 1.19922 9.09961C1.19922 13.4627 4.73656 17 9.09961 17C13.4627 17 17 13.4627 17 9.09961C17 4.73656 13.4627 1.19922 9.09961 1.19922Z" fill="#29390C"/>
</svg>
