<svg width="16" height="16" viewBox="0 0 16 16" fill="none" xmlns="http://www.w3.org/2000/svg">
<path d="M8 4.38839C8.37864 4.38839 8.68559 4.6955 8.68571 5.07411V7.71607L10.3134 9.34375C10.5811 9.61151 10.581 10.0456 10.3134 10.3134C10.0456 10.5811 9.61152 10.5811 9.34375 10.3134L7.51518 8.48482C7.38669 8.35628 7.31433 8.18175 7.31429 8V5.07411C7.31441 4.6955 7.62137 4.38839 8 4.38839Z" fill="#29390C"/>
<path fill-rule="evenodd" clip-rule="evenodd" d="M8 0C12.4183 0 16 3.58172 16 8C16 12.4183 12.4183 16 8 16C3.58172 16 0 12.4183 0 8C0 3.58172 3.58172 0 8 0ZM8 1.37143C4.33914 1.37143 1.37143 4.33914 1.37143 8C1.37143 11.6609 4.33914 14.6286 8 14.6286C11.6609 14.6286 14.6286 11.6609 14.6286 8C14.6286 4.33914 11.6609 1.37143 8 1.37143Z" fill="#29390C"/>
</svg>
