<svg width="24" height="24" viewBox="0 0 24 24" fill="none" xmlns="http://www.w3.org/2000/svg">
<rect width="24" height="24" rx="4" fill="#BDC4C0"/>
<path d="M15.5144 8.84382C15.7489 8.63852 16.098 8.67212 16.2934 8.91849C16.4883 9.16483 16.4566 9.53082 16.2223 9.736L14.8299 10.9552C14.2488 11.464 13.7745 11.8809 13.3556 12.164C12.9238 12.4557 12.4959 12.645 12 12.645C11.5042 12.645 11.0762 12.4556 10.6444 12.164C10.2255 11.8809 9.75047 11.4641 9.16924 10.9552L7.77769 9.736C7.5433 9.53078 7.51149 9.16485 7.70663 8.91849C7.90198 8.67218 8.25023 8.63869 8.48471 8.84382L9.87715 10.063C10.4798 10.5906 10.8936 10.9515 11.2417 11.1867C11.5769 11.4133 11.7958 11.4835 12 11.4835C12.2041 11.4835 12.4224 11.4131 12.7574 11.1867C13.1055 10.9515 13.52 10.5908 14.1228 10.063L15.5144 8.84382Z" fill="#29390C"/>
<path fill-rule="evenodd" clip-rule="evenodd" d="M13.2899 6C14.4899 6 15.4459 5.99835 16.1935 6.10396C16.9569 6.21186 17.586 6.44045 18.0834 6.96306C18.5807 7.48566 18.7984 8.14669 18.9011 8.94873C19.0015 9.7342 19 10.7389 19 11.9995C19 13.2602 19.0015 14.2648 18.9011 15.0503C18.7984 15.8523 18.5806 16.5134 18.0834 17.036C17.586 17.5585 16.9569 17.7882 16.1935 17.896C15.4459 18.0016 14.4899 18 13.2899 18H10.7101C9.51013 18 8.5541 18.0016 7.80648 17.896C7.04312 17.7882 6.414 17.5585 5.9166 17.036C5.41943 16.5134 5.2016 15.8523 5.09895 15.0503C4.99848 14.2648 5 13.2602 5 11.9995C5 10.7389 4.99848 9.7342 5.09895 8.94873C5.20162 8.14669 5.41931 7.48566 5.9166 6.96306C6.41401 6.44045 7.04307 6.21186 7.80648 6.10396C8.55411 5.99835 9.5101 6 10.7101 6H13.2899ZM10.7101 7.16059C9.47888 7.16059 8.61087 7.16231 7.954 7.2551C7.31309 7.34566 6.95615 7.51342 6.69828 7.78436C6.4405 8.05529 6.28072 8.43045 6.19455 9.10373C6.10628 9.79385 6.1046 10.7061 6.1046 11.9995C6.1046 13.2932 6.10624 14.2061 6.19455 14.8963C6.28076 15.5694 6.44047 15.9448 6.69828 16.2156C6.95614 16.4864 7.31326 16.6544 7.954 16.7449C8.61086 16.8377 9.47891 16.8385 10.7101 16.8385H13.2899C14.5211 16.8385 15.3891 16.8377 16.046 16.7449C16.6867 16.6544 17.0439 16.4864 17.3017 16.2156C17.5595 15.9448 17.7192 15.5694 17.8054 14.8963C17.8938 14.2061 17.8954 13.2932 17.8954 11.9995C17.8954 10.7061 17.8937 9.79385 17.8054 9.10373C17.7193 8.43045 17.5595 8.05529 17.3017 7.78436C17.0439 7.51342 16.6869 7.34566 16.046 7.2551C15.3891 7.16231 14.5211 7.16059 13.2899 7.16059H10.7101Z" fill="#29390C"/>
</svg>
