<svg width="24" height="24" viewBox="0 0 24 24" fill="none" xmlns="http://www.w3.org/2000/svg">
<rect width="24" height="24" rx="4" fill="#87968E"/>
<path fill-rule="evenodd" clip-rule="evenodd" d="M12 8.18177C13.35 8.18177 14.4444 9.32139 14.4444 10.7272C14.4444 12.133 13.35 13.2726 12 13.2726C10.65 13.2726 9.55556 12.133 9.55556 10.7272C9.55556 9.32139 10.65 8.18177 12 8.18177ZM12 9.45447C11.325 9.45447 10.7778 10.0243 10.7778 10.7272C10.7778 11.4301 11.325 11.9999 12 11.9999C12.675 11.9999 13.2222 11.4301 13.2222 10.7272C13.2222 10.0243 12.675 9.45447 12 9.45447Z" fill="#29390C"/>
<path fill-rule="evenodd" clip-rule="evenodd" d="M12 5C15.0477 5 17.5 7.61565 17.5 10.8183C17.5 12.3517 17.0808 13.9935 16.3414 15.4112C15.6032 16.8266 14.5195 18.0678 13.153 18.733C12.4215 19.089 11.5785 19.089 10.847 18.733C9.48048 18.0678 8.39676 16.8266 7.65856 15.4112C6.91924 13.9935 6.5 12.3517 6.5 10.8183C6.50002 7.61565 8.95226 5 12 5ZM12 6.27271C9.64764 6.27271 7.72224 8.29715 7.72222 10.8183C7.72222 12.1243 8.08343 13.5587 8.73278 14.8038C9.38338 16.0512 10.2971 17.0598 11.365 17.5796C11.7685 17.7759 12.2315 17.7759 12.635 17.5796C13.7029 17.0598 14.6166 16.0512 15.2672 14.8038C15.9166 13.5587 16.2778 12.1243 16.2778 10.8183C16.2778 8.29715 14.3524 6.27271 12 6.27271Z" fill="#29390C"/>
</svg>
