<svg width="24" height="24" viewBox="0 0 24 24" fill="none" xmlns="http://www.w3.org/2000/svg">
<rect width="24" height="24" rx="4" fill="#87968E"/>
<path d="M12 9.20052C12.3682 9.20052 12.6667 9.499 12.6667 9.86719V11.724L13.8047 12.862C14.0647 13.1223 14.0647 13.5444 13.8047 13.8047C13.5444 14.0647 13.1223 14.0647 12.862 13.8047L11.5286 12.4714C11.4039 12.3465 11.3335 12.1765 11.3333 12V9.86719C11.3333 9.499 11.6318 9.20052 12 9.20052Z" fill="#29390C"/>
<path fill-rule="evenodd" clip-rule="evenodd" d="M12 6C15.3137 6 18 8.68629 18 12C18 15.3137 15.3137 18 12 18C8.68629 18 6 15.3137 6 12C6 8.68629 8.68629 6 12 6ZM12 7.33333C9.42267 7.33333 7.33333 9.42267 7.33333 12C7.33333 14.5773 9.42267 16.6667 12 16.6667C14.5773 16.6667 16.6667 14.5773 16.6667 12C16.6667 9.42267 14.5773 7.33333 12 7.33333Z" fill="#29390C"/>
</svg>
