<svg width="24" height="24" viewBox="0 0 24 24" fill="none" xmlns="http://www.w3.org/2000/svg">
<rect width="24" height="24" rx="4" fill="#BDC4C0"/>
<path fill-rule="evenodd" clip-rule="evenodd" d="M7.20878 6.79731C8.36731 5.63917 10.3277 5.72376 11.1385 7.17554L11.5815 7.9693C12.1097 8.91613 11.8839 10.1073 11.1145 10.8886L11.1172 10.8869C11.1149 10.8899 11.1075 10.9003 11.0985 10.917C11.0807 10.9503 11.0559 11.0104 11.0515 11.0991C11.0435 11.2612 11.0992 11.6573 11.7209 12.279C12.3423 12.9005 12.7385 12.9563 12.9009 12.9485C12.9894 12.9441 13.0495 12.9192 13.0829 12.9014C13.0963 12.8943 13.1057 12.8879 13.1104 12.8846C13.8917 12.1152 15.0838 11.8905 16.0306 12.4184L16.8244 12.8615C18.2764 13.6722 18.3608 15.6326 17.2026 16.7912C16.5871 17.4067 15.7643 17.9583 14.7947 17.9952C13.3679 18.0492 11.0013 17.6804 8.66044 15.3395C6.31964 12.9986 5.95075 10.632 6.00484 9.20522C6.04173 8.23566 6.59335 7.4128 7.20878 6.79731ZM10.1858 7.70738C9.79006 6.99919 8.72025 6.82806 7.97945 7.56887C7.45373 8.09467 7.117 8.67107 7.09514 9.24695C7.0506 10.4224 7.34031 12.4761 9.432 14.568C11.5237 16.6597 13.5774 16.9493 14.753 16.9049C15.3289 16.883 15.9052 16.5463 16.431 16.0205C17.1719 15.2796 17.0009 14.2098 16.2925 13.8142L15.4997 13.3711C15.0213 13.1044 14.3445 13.1938 13.8678 13.6703L13.4815 13.285C13.8327 13.6362 13.8643 13.6681 13.8669 13.6712L13.8616 13.6766C13.8593 13.6787 13.8562 13.6811 13.8536 13.6837C13.8482 13.6887 13.8421 13.6951 13.8349 13.7014C13.8203 13.7144 13.8011 13.7296 13.779 13.7467C13.7347 13.7808 13.6745 13.8224 13.5987 13.863C13.4458 13.9449 13.2286 14.0244 12.9542 14.0379C12.3891 14.0655 11.7106 13.8119 10.9494 13.0506C10.1881 12.2893 9.93436 11.6109 9.96205 11.0458C9.97554 10.7713 10.055 10.5541 10.137 10.4012C10.1776 10.3253 10.2191 10.2653 10.2533 10.2209C10.2704 10.1988 10.2856 10.1796 10.2986 10.165C10.3049 10.1578 10.3112 10.1518 10.3163 10.1464C10.3188 10.1437 10.3212 10.1406 10.3234 10.1384L10.3287 10.133C10.3287 10.133 10.3436 10.1471 10.5978 10.4012L10.3296 10.1322C10.8063 9.65528 10.8958 8.97862 10.6288 8.50025L10.1858 7.70738Z" fill="#29390C"/>
<path d="M16.7738 6.681C17.075 6.681 17.3188 6.92492 17.3189 7.22615V9.27181C17.3189 9.57309 17.075 9.81697 16.7738 9.81697C16.4727 9.81675 16.2286 9.57295 16.2286 9.27181V8.54198L14.4316 10.339C14.2185 10.5519 13.8739 10.552 13.6609 10.339C13.4482 10.126 13.4481 9.78132 13.6609 9.56836L15.4579 7.77131H14.7281C14.427 7.77109 14.183 7.52729 14.183 7.22615C14.183 6.92506 14.4271 6.68121 14.7281 6.681H16.7738Z" fill="#29390C"/>
</svg>
