<svg width="30" height="30" viewBox="0 0 30 30" fill="none" xmlns="http://www.w3.org/2000/svg">
<rect width="30" height="30" rx="4" fill="#BDC4C0"/>
<path d="M7 14.9996C7 11.9826 7 10.4741 7.93726 9.53687C8.87452 8.59961 10.383 8.59961 13.4 8.59961H16.6C19.617 8.59961 21.1255 8.59961 22.0627 9.53687C23 10.4741 23 11.9826 23 14.9996C23 18.0166 23 19.5251 22.0627 20.4624C21.1255 21.3996 19.617 21.3996 16.6 21.3996H13.4C10.383 21.3996 8.87452 21.3996 7.93726 20.4624C7 19.5251 7 18.0166 7 14.9996Z" stroke="#29390C" stroke-width="1.2"/>
<path d="M10.2 11.7998L11.9271 13.2391C13.3964 14.4635 14.1311 15.0757 15 15.0757C15.8689 15.0757 16.6036 14.4635 18.0729 13.2391L19.8 11.7998" stroke="#29390C" stroke-width="1.2" stroke-linecap="round"/>
</svg>
