<svg width="35" height="35" viewBox="0 0 35 35" fill="none" xmlns="http://www.w3.org/2000/svg">
<rect x="0.5" y="0.5" width="34" height="34" rx="17" stroke="#BDC4C0"/>
<path d="M17.5 11.3554C19.488 11.3554 19.759 11.3554 20.5723 11.3554C21.2952 11.3554 21.6566 11.5361 21.9277 11.6265C22.2892 11.8072 22.5602 11.8976 22.8313 12.1687C23.1024 12.4398 23.2831 12.7108 23.3735 13.0723C23.4639 13.3434 23.5542 13.7048 23.6446 14.4277C23.6446 15.241 23.6446 15.4217 23.6446 17.5C23.6446 19.5783 23.6446 19.759 23.6446 20.5723C23.6446 21.2952 23.4639 21.6566 23.3735 21.9277C23.1928 22.2892 23.1024 22.5602 22.8313 22.8313C22.5602 23.1024 22.2892 23.2831 21.9277 23.3735C21.6566 23.4639 21.2952 23.5542 20.5723 23.6446C19.759 23.6446 19.5783 23.6446 17.5 23.6446C15.4217 23.6446 15.241 23.6446 14.4277 23.6446C13.7048 23.6446 13.3434 23.4639 13.0723 23.3735C12.7108 23.1928 12.4398 23.1024 12.1687 22.8313C11.8976 22.5602 11.7169 22.2892 11.6265 21.9277C11.5361 21.6566 11.4458 21.2952 11.3554 20.5723C11.3554 19.759 11.3554 19.5783 11.3554 17.5C11.3554 15.4217 11.3554 15.241 11.3554 14.4277C11.3554 13.7048 11.5361 13.3434 11.6265 13.0723C11.8072 12.7108 11.8976 12.4398 12.1687 12.1687C12.4398 11.8976 12.7108 11.7169 13.0723 11.6265C13.3434 11.5361 13.7048 11.4458 14.4277 11.3554C15.241 11.3554 15.512 11.3554 17.5 11.3554ZM17.5 10C15.4217 10 15.241 10 14.4277 10C13.6145 10 13.0723 10.1807 12.6205 10.3614C12.1687 10.5422 11.7169 10.8133 11.2651 11.2651C10.8133 11.7169 10.6325 12.0783 10.3614 12.6205C10.1807 13.0723 10.0904 13.6145 10 14.4277C10 15.241 10 15.512 10 17.5C10 19.5783 10 19.759 10 20.5723C10 21.3855 10.1807 21.9277 10.3614 22.3795C10.5422 22.8313 10.8133 23.2831 11.2651 23.7349C11.7169 24.1867 12.0783 24.3675 12.6205 24.6386C13.0723 24.8193 13.6145 24.9096 14.4277 25C15.241 25 15.512 25 17.5 25C19.488 25 19.759 25 20.5723 25C21.3855 25 21.9277 24.8193 22.3795 24.6386C22.8313 24.4578 23.2831 24.1867 23.7349 23.7349C24.1867 23.2831 24.3675 22.9217 24.6386 22.3795C24.8193 21.9277 24.9096 21.3855 25 20.5723C25 19.759 25 19.488 25 17.5C25 15.512 25 15.241 25 14.4277C25 13.6145 24.8193 13.0723 24.6386 12.6205C24.4578 12.1687 24.1867 11.7169 23.7349 11.2651C23.2831 10.8133 22.9217 10.6325 22.3795 10.3614C21.9277 10.1807 21.3855 10.0904 20.5723 10C19.759 10 19.5783 10 17.5 10Z" fill="#BDC4C0"/>
<path d="M17.5 13.6145C15.3313 13.6145 13.6145 15.3313 13.6145 17.5C13.6145 19.6687 15.3313 21.3855 17.5 21.3855C19.6687 21.3855 21.3855 19.6687 21.3855 17.5C21.3855 15.3313 19.6687 13.6145 17.5 13.6145ZM17.5 20.0301C16.1446 20.0301 14.9699 18.9458 14.9699 17.5C14.9699 16.1446 16.0542 14.9699 17.5 14.9699C18.8554 14.9699 20.0301 16.0542 20.0301 17.5C20.0301 18.8554 18.8554 20.0301 17.5 20.0301Z" fill="#BDC4C0"/>
<path d="M21.4759 14.4277C21.975 14.4277 22.3795 14.0231 22.3795 13.5241C22.3795 13.025 21.975 12.6205 21.4759 12.6205C20.9769 12.6205 20.5723 13.025 20.5723 13.5241C20.5723 14.0231 20.9769 14.4277 21.4759 14.4277Z" fill="#BDC4C0"/>
</svg>
