<svg width="19" height="19" viewBox="0 0 19 19" fill="none" xmlns="http://www.w3.org/2000/svg">
<path d="M12.2286 11.2989C15.1951 11.2989 17.6 8.90392 17.6 5.94952C17.6 2.99511 15.1951 0.600098 12.2286 0.600098C9.26209 0.600098 6.85725 2.99511 6.85725 5.94952C6.85725 7.31797 7.48182 8.31322 7.48182 8.31322L0.98622 14.7823C0.694751 15.0726 0.286694 15.8273 0.98622 16.524L1.73571 17.2704C2.02717 17.5192 2.75999 17.8675 3.35958 17.2704L4.23399 16.3995C5.1084 17.2704 6.10772 16.7728 6.48247 16.2751C7.10705 15.4043 6.35755 14.5335 6.35755 14.5335L6.60738 14.2847C7.80657 15.479 8.85586 14.7823 9.23061 14.2847C9.85519 13.4138 9.23061 12.543 9.23061 12.543C8.98078 12.0454 8.48115 12.0454 9.10569 11.4234L9.85522 10.6769C10.4548 11.1745 11.6873 11.2989 12.2286 11.2989Z" stroke="#29390C" stroke-width="1.2" stroke-linejoin="round"/>
<path d="M14.1023 5.94957C14.1023 6.98018 13.2634 7.81565 12.2286 7.81565C11.1938 7.81565 10.3549 6.98018 10.3549 5.94957C10.3549 4.91897 11.1938 4.0835 12.2286 4.0835C13.2634 4.0835 14.1023 4.91897 14.1023 5.94957Z" stroke="#29390C" stroke-width="1.2"/>
</svg>
