<svg width="16" height="300" viewBox="0 0 16 300" fill="none" xmlns="http://www.w3.org/2000/svg">
<line x1="8.00001" y1="8.30516e-07" x2="7.99997" y2="300" stroke="#BBBBBB" stroke-width="2" stroke-dasharray="10 10"/>
<circle cx="8.00001" cy="34" r="8" transform="rotate(90 8.00001 34)" fill="white"/>
<path d="M16 34C16 38.4183 12.4183 42 8.00001 42C3.58173 42 1.25706e-05 38.4183 1.27637e-05 34C1.29569e-05 29.5817 3.58174 26 8.00001 26C12.4183 26 16 29.5817 16 34ZM14 34C14 30.6863 11.3137 28 8.00001 28C4.6863 28 2.00001 30.6863 2.00001 34C2.00001 37.3137 4.6863 40 8.00001 40C11.3137 40 14 37.3137 14 34ZM12 34C12 36.2091 10.2092 38 8.00001 38C5.79087 38 4.00001 36.2091 4.00001 34C4.00001 31.7909 5.79087 30 8.00001 30C10.2092 30 12 31.7909 12 34Z" fill="#29390C"/>
<circle cx="8.00001" cy="150" r="8" transform="rotate(90 8.00001 150)" fill="white"/>
<path d="M16 150C16 154.418 12.4183 158 8.00001 158C3.58173 158 1.25706e-05 154.418 1.27637e-05 150C1.29569e-05 145.582 3.58174 142 8.00001 142C12.4183 142 16 145.582 16 150ZM14 150C14 146.686 11.3137 144 8.00001 144C4.6863 144 2.00001 146.686 2.00001 150C2.00001 153.314 4.6863 156 8.00001 156C11.3137 156 14 153.314 14 150ZM12 150C12 152.209 10.2092 154 8.00001 154C5.79087 154 4.00001 152.209 4.00001 150C4.00001 147.791 5.79087 146 8.00001 146C10.2092 146 12 147.791 12 150Z" fill="#29390C"/>
<circle cx="8.00001" cy="266" r="8" transform="rotate(90 8.00001 266)" fill="white"/>
<path d="M16 266C16 270.418 12.4183 274 8.00001 274C3.58173 274 1.25706e-05 270.418 1.27637e-05 266C1.29569e-05 261.582 3.58174 258 8.00001 258C12.4183 258 16 261.582 16 266ZM14 266C14 262.686 11.3137 260 8.00001 260C4.6863 260 2.00001 262.686 2.00001 266C2.00001 269.314 4.6863 272 8.00001 272C11.3137 272 14 269.314 14 266ZM12 266C12 268.209 10.2092 270 8.00001 270C5.79087 270 4.00001 268.209 4.00001 266C4.00001 263.791 5.79087 262 8.00001 262C10.2092 262 12 263.791 12 266Z" fill="#29390C"/>
</svg>
