<svg width="11" height="13" viewBox="0 0 11 13" fill="none" xmlns="http://www.w3.org/2000/svg">
<path fill-rule="evenodd" clip-rule="evenodd" d="M5.14999 2.94114C6.33346 2.94114 7.29285 3.87824 7.29285 5.0342C7.29285 6.19017 6.33346 7.12726 5.14999 7.12726C3.96653 7.12726 3.00714 6.19017 3.00714 5.0342C3.00714 3.87824 3.96653 2.94114 5.14999 2.94114ZM5.14999 3.77836C4.43991 3.77836 3.86428 4.34062 3.86428 5.0342C3.86428 5.72778 4.43991 6.29004 5.14999 6.29004C5.86007 6.29004 6.43571 5.72778 6.43571 5.0342C6.43571 4.34062 5.86007 3.77836 5.14999 3.77836Z" fill="#242424"/>
<path fill-rule="evenodd" clip-rule="evenodd" d="M5.14999 0.150391C7.91856 0.150391 10.15 2.37994 10.15 5.11433C10.15 6.43437 9.76499 7.85192 9.08415 9.07643C8.40411 10.2994 7.4102 11.3619 6.16729 11.9293C5.52163 12.2241 4.77836 12.2241 4.13269 11.9293C2.88979 11.3619 1.89588 10.2994 1.21584 9.07643C0.534994 7.85192 0.150022 6.43437 0.149994 5.11433C0.149994 2.37994 2.38143 0.150391 5.14999 0.150391ZM5.14999 0.987615C2.8691 0.987615 1.00714 2.82825 1.00714 5.11433C1.00717 6.28477 1.35146 7.5659 1.96919 8.67689C2.58777 9.78935 3.46198 10.6993 4.49542 11.1711C4.91108 11.3609 5.38891 11.3609 5.80457 11.1711C6.83801 10.6993 7.71222 9.78935 8.3308 8.67689C8.94853 7.5659 9.29282 6.28477 9.29285 5.11433C9.29285 2.82825 7.43089 0.987615 5.14999 0.987615Z" fill="#242424"/>
<path fill-rule="evenodd" clip-rule="evenodd" d="M5.14999 2.94114C6.33346 2.94114 7.29285 3.87824 7.29285 5.0342C7.29285 6.19017 6.33346 7.12726 5.14999 7.12726C3.96653 7.12726 3.00714 6.19017 3.00714 5.0342C3.00714 3.87824 3.96653 2.94114 5.14999 2.94114ZM5.14999 3.77836C4.43991 3.77836 3.86428 4.34062 3.86428 5.0342C3.86428 5.72778 4.43991 6.29004 5.14999 6.29004C5.86007 6.29004 6.43571 5.72778 6.43571 5.0342C6.43571 4.34062 5.86007 3.77836 5.14999 3.77836Z" stroke="#242424" stroke-width="0.3"/>
<path fill-rule="evenodd" clip-rule="evenodd" d="M5.14999 0.150391C7.91856 0.150391 10.15 2.37994 10.15 5.11433C10.15 6.43437 9.76499 7.85192 9.08415 9.07643C8.40411 10.2994 7.4102 11.3619 6.16729 11.9293C5.52163 12.2241 4.77836 12.2241 4.13269 11.9293C2.88979 11.3619 1.89588 10.2994 1.21584 9.07643C0.534994 7.85192 0.150022 6.43437 0.149994 5.11433C0.149994 2.37994 2.38143 0.150391 5.14999 0.150391ZM5.14999 0.987615C2.8691 0.987615 1.00714 2.82825 1.00714 5.11433C1.00717 6.28477 1.35146 7.5659 1.96919 8.67689C2.58777 9.78935 3.46198 10.6993 4.49542 11.1711C4.91108 11.3609 5.38891 11.3609 5.80457 11.1711C6.83801 10.6993 7.71222 9.78935 8.3308 8.67689C8.94853 7.5659 9.29282 6.28477 9.29285 5.11433C9.29285 2.82825 7.43089 0.987615 5.14999 0.987615Z" stroke="#242424" stroke-width="0.3"/>
</svg>
