<svg width="120" height="49" viewBox="0 0 120 49" fill="none" xmlns="http://www.w3.org/2000/svg">
<path fill-rule="evenodd" clip-rule="evenodd" d="M72.1746 33.0848C73.4709 33.0848 74.5762 33.3985 75.49 34.0253C76.4036 34.6522 77.095 35.4569 77.5625 36.4389C78.0512 37.421 78.2947 38.4667 78.2947 39.5742C78.2946 40.8486 77.987 41.9768 77.3709 42.9588C76.7547 43.92 75.9472 44.6731 74.9486 45.2164C73.9498 45.7388 72.8548 45.9999 71.6649 46C70.3899 46 69.2845 45.6967 68.3495 45.0909C67.4357 44.4849 66.7229 43.6803 66.2128 42.6773C65.7913 41.8122 65.5522 40.8923 65.4942 39.9185H62.2277V43.0539C62.2277 43.9522 62.3343 44.5377 62.5467 44.8094C62.7594 45.0808 63.2273 45.2164 63.9495 45.2164C63.9918 45.2167 64.0127 45.2791 64.0128 45.4038C64.0128 45.5289 63.9918 45.5918 63.9495 45.592C63.5035 45.592 63.0041 45.5815 62.4518 45.5607C61.9206 45.5398 61.367 45.5293 60.7933 45.5293C60.1984 45.5293 59.6134 45.5398 59.0398 45.5607C58.4876 45.5815 57.9777 45.592 57.5104 45.592C57.4467 45.592 57.4137 45.5291 57.4137 45.4038C57.4138 45.2788 57.4468 45.2164 57.5104 45.2164C58.2534 45.2163 58.7313 45.0806 58.944 44.8094C59.1565 44.5377 59.263 43.9522 59.263 43.0539V36.0318C59.263 35.1124 59.1564 34.5272 58.944 34.2763C58.7314 34.0047 58.2637 33.8684 57.5412 33.8684C57.4777 33.8681 57.4463 33.8052 57.4463 33.6801C57.4463 33.5552 57.4778 33.493 57.5412 33.4927C57.9874 33.4927 58.4874 33.5023 59.0398 33.5232C59.6134 33.5441 60.1984 33.5546 60.7933 33.5546C61.3668 33.5546 61.9302 33.5441 62.4826 33.5232C63.0351 33.5023 63.5245 33.4927 63.9495 33.4927C63.9918 33.493 64.0128 33.5552 64.0128 33.6801C64.0128 33.8052 63.9918 33.8681 63.9495 33.8684C63.227 33.8684 62.7593 34.0152 62.5467 34.3077C62.3344 34.6003 62.2277 35.1956 62.2277 36.0937V39.1663H65.4861C65.5178 38.1787 65.7164 37.3216 66.0853 36.5958C66.4891 35.8018 67.021 35.143 67.6798 34.6206C68.3384 34.0983 69.0611 33.7121 69.8472 33.4614C70.6335 33.2106 71.4096 33.0848 72.1746 33.0848ZM70.9942 33.7742C70.2719 33.7744 69.7199 34.1195 69.3374 34.8089C68.9549 35.4776 68.7635 36.5539 68.7635 38.0375C68.7635 39.6675 68.9549 41.0266 69.3374 42.1133C69.7412 43.1789 70.241 43.9837 70.836 44.5269C71.4309 45.07 72.047 45.3419 72.6844 45.3419C73.4918 45.3419 74.0757 44.9442 74.437 44.1504C74.7982 43.3562 74.9793 42.2591 74.9793 40.859C74.9793 39.1036 74.7671 37.7139 74.3421 36.6899C73.917 35.645 73.3957 34.9026 72.7793 34.4637C72.1632 34.0043 71.5678 33.7742 70.9942 33.7742Z" fill="#F0E8DD"/>
<path d="M59.6381 26C59.7015 26.0003 59.733 26.0634 59.733 26.1883C59.733 26.3132 59.7016 26.3763 59.6381 26.3766C59.0431 26.3766 58.4055 26.6484 57.7256 27.1916C57.0668 27.7349 56.534 28.4451 56.1303 29.3227L50.1377 43.0216C49.6701 44.0873 49.1704 44.8508 48.6391 45.3105C48.1079 45.7492 47.3956 45.9686 46.5033 45.9686C45.6322 45.9686 44.9312 45.7798 44.4 45.4038C43.8687 45.0276 43.6028 44.5367 43.6028 43.9307C43.6029 43.5338 43.7414 43.1675 44.0176 42.8333C44.2939 42.4786 44.7188 42.3008 45.2921 42.3007C45.8018 42.3008 46.1737 42.4267 46.4075 42.6773C46.6411 42.907 46.811 43.179 46.9172 43.4923C47.0234 43.8055 47.1301 44.088 47.2363 44.3386C47.3638 44.5684 47.5666 44.6838 47.8428 44.6838C48.0551 44.6837 48.2676 44.5788 48.48 44.37C48.6925 44.1402 48.9368 43.7014 49.213 43.0539L49.6948 41.9426L42.7098 28.6028C42.306 27.8088 41.9231 27.2435 41.5619 26.9091C41.2006 26.5541 40.7007 26.3766 40.0633 26.3766C40.0211 26.3762 40 26.313 40 26.1883C40 26.0636 40.0211 26.0004 40.0633 26C40.4246 26 40.7121 26.0105 40.9246 26.0314C41.1371 26.0523 41.4241 26.0733 41.7851 26.0941H45.8977C46.4926 26.0733 46.9605 26.0523 47.3005 26.0314C47.6615 26.0105 47.9806 26 48.2567 26C48.299 26.0003 48.32 26.0635 48.32 26.1883C48.32 26.3131 48.299 26.3763 48.2567 26.3766C47.4283 26.3766 46.8433 26.5121 46.5033 26.7836C46.1634 27.0553 46.185 27.5577 46.5674 28.289L51.4031 38.007L55.174 29.3227C55.5352 28.4661 55.5464 27.7662 55.2065 27.2229C54.8665 26.6587 54.2072 26.3766 53.2298 26.3766C53.1876 26.3761 53.1665 26.313 53.1665 26.1883C53.1665 26.0636 53.1876 26.0005 53.2298 26C53.7822 26 54.3142 26.0219 54.8242 26.0637C55.3341 26.0846 56.0033 26.0941 56.8316 26.0941H57.8846C58.1607 26.0733 58.4157 26.0523 58.6493 26.0314C58.9043 26.0105 59.2343 26 59.6381 26Z" fill="#F0E8DD"/>
<path fill-rule="evenodd" clip-rule="evenodd" d="M100.194 33.2103C101.129 33.2104 101.926 33.4919 102.585 34.0557C103.244 34.5991 103.574 35.4674 103.574 36.6585V42.2066C103.574 42.8126 103.68 43.2834 103.893 43.6178C104.127 43.9519 104.445 44.119 104.849 44.119C105.146 44.1189 105.454 44.0463 105.773 43.9002C105.858 43.8584 105.922 43.9004 105.964 44.0258C106.028 44.13 106.006 44.2028 105.9 44.2445L102.617 45.7813C102.533 45.823 102.426 45.843 102.298 45.8431C101.916 45.843 101.533 45.5921 101.151 45.0909C100.944 44.8198 100.794 44.484 100.699 44.0848L99.238 44.8712C98.7069 45.1427 98.1434 45.3726 97.5486 45.5607C96.9537 45.7278 96.4114 45.8117 95.9226 45.8117C95.2639 45.8117 94.732 45.6448 94.3282 45.3105C93.9245 44.9553 93.7226 44.4529 93.7226 43.8052C93.7227 43.0532 94.0096 42.52 94.5831 42.2066C95.1782 41.8722 96.0929 41.5062 97.3254 41.1091L100.577 40.0819V37.5991C100.577 36.7841 100.524 36.1044 100.417 35.5611C100.311 35.0179 100.141 34.6098 99.9077 34.3382C99.674 34.0667 99.355 33.9313 98.9514 33.9311C98.6327 33.9311 98.345 34.0142 98.0901 34.1813C97.8351 34.3275 97.6332 34.5792 97.4845 34.9344C97.3358 35.2687 97.2396 35.739 97.197 36.3447C97.1333 36.9504 96.9425 37.3997 96.624 37.6923C96.3052 37.964 95.8687 38.1002 95.3161 38.1002C94.7851 38.1002 94.4019 37.9858 94.1682 37.756C93.9346 37.5262 93.8185 37.2122 93.8184 36.8155C93.8184 36.3559 94.0414 35.9171 94.4873 35.4993C94.9336 35.0604 95.487 34.6726 96.1459 34.3382C96.8258 33.983 97.5276 33.7112 98.25 33.5232C98.9723 33.3144 99.6206 33.2103 100.194 33.2103ZM98.824 41.2347C98.2503 41.4436 97.8353 41.6744 97.5803 41.9251C97.3468 42.1756 97.2297 42.4784 97.2296 42.8333C97.2296 43.2721 97.3569 43.6181 97.6119 43.8688C97.8668 44.1193 98.186 44.2444 98.5682 44.2445C98.7381 44.2445 98.9619 44.213 99.238 44.1504C99.5354 44.0668 99.8544 43.9514 100.194 43.8052L100.612 43.5809C100.589 43.3766 100.577 43.159 100.577 42.9283V40.6098L98.824 41.2347Z" fill="#F0E8DD"/>
<path d="M91.4594 32.7396C91.5864 32.7397 91.65 32.7923 91.6501 32.8965V34.4019C91.6501 35.0285 91.6397 35.6343 91.6184 36.2192V37.5363C91.6182 37.5987 91.554 37.6304 91.4268 37.6304C91.3208 37.6304 91.2565 37.5988 91.2352 37.5363C90.8314 36.3244 90.3853 35.4674 89.8966 34.9658C89.4291 34.4435 88.8555 34.1814 88.1756 34.1813C87.8358 34.1813 87.6018 34.3179 87.4742 34.5892C87.368 34.8609 87.3143 35.3626 87.3143 36.0937V43.0539C87.3143 43.9522 87.4208 44.5377 87.6333 44.8094C87.8459 45.0807 88.3134 45.2163 89.0352 45.2164C89.0989 45.2164 89.1318 45.2788 89.1319 45.4038C89.1319 45.5291 89.099 45.592 89.0352 45.592C88.5891 45.592 88.0897 45.5815 87.5375 45.5607C87.0063 45.5398 86.4535 45.5293 85.8798 45.5293C85.2848 45.5293 84.7001 45.5398 84.1264 45.5607C83.5738 45.5816 83.0636 45.592 82.5961 45.592C82.5325 45.5919 82.5003 45.529 82.5003 45.4038C82.5004 45.2789 82.5326 45.2165 82.5961 45.2164C83.3399 45.2164 83.8189 45.081 84.0314 44.8094C84.2439 44.5377 84.3496 43.9522 84.3496 43.0539V36.0937C84.3496 35.3626 84.2967 34.8609 84.1905 34.5892C84.0843 34.3178 83.8502 34.1814 83.4891 34.1813C82.7878 34.1813 82.2023 34.4434 81.7347 34.9658C81.2673 35.4674 80.821 36.3246 80.3961 37.5363C80.3747 37.5987 80.3008 37.6304 80.1738 37.6304C80.0677 37.6304 80.014 37.5988 80.0138 37.5363V36.2192C80.0138 35.6343 80.0034 35.0285 79.9822 34.4019V32.8965C79.9823 32.7922 80.0464 32.7396 80.1738 32.7396C80.3009 32.7397 80.3644 32.7923 80.3645 32.8965C80.3645 33.1681 80.7898 33.3464 81.6398 33.43C82.5112 33.4927 83.9463 33.5232 85.944 33.5232C87.1552 33.5232 88.154 33.5136 88.9403 33.4927C89.7265 33.4509 90.3112 33.388 90.6938 33.3044C91.0761 33.2208 91.2677 33.0845 91.2677 32.8965C91.2678 32.7922 91.3319 32.7396 91.4594 32.7396Z" fill="#F0E8DD"/>
<path fill-rule="evenodd" clip-rule="evenodd" d="M108.105 10.0881C108.512 10.0881 108.92 10.099 109.327 10.1189H110.517C110.903 10.1189 111.235 10.1289 111.513 10.1489H119.357C119.4 10.1489 119.422 10.2081 119.422 10.3276C119.422 10.4472 119.4 10.5073 119.357 10.5073C118.865 10.5073 118.489 10.5664 118.232 10.686C117.996 10.8056 117.836 11.016 117.751 11.3148C117.665 11.6138 117.622 12.0526 117.622 12.6304V19.2703C117.622 19.8284 117.643 20.2278 117.686 20.4671C117.729 20.706 117.89 20.8555 118.168 20.9153C118.447 20.9751 118.929 21.0051 119.614 21.0051C119.786 21.0051 119.893 21.0252 119.936 21.065C119.979 21.0851 120 21.1751 120 21.3345C120 21.6733 119.969 22.0227 119.904 22.3815C119.861 22.7603 119.807 23.219 119.743 23.7571C119.679 24.3153 119.647 25.0239 119.647 25.8811C119.647 25.9603 119.581 26 119.453 26C119.347 25.9998 119.294 25.9601 119.294 25.8811C119.294 24.5053 118.939 23.4578 118.232 22.74C117.525 22.0223 116.507 21.663 115.178 21.663H109.875C108.546 21.663 107.537 22.0221 106.851 22.74C106.166 23.4578 105.823 24.5056 105.823 25.8811C105.823 25.9603 105.758 26 105.63 26C105.502 25.9999 105.438 25.9602 105.438 25.8811C105.438 24.8843 105.405 24.1358 105.341 23.6373C105.298 23.1388 105.244 22.7296 105.18 22.4106C105.137 22.0918 105.116 21.733 105.116 21.3345C105.116 21.1754 105.137 21.0752 105.18 21.0351C105.223 20.9753 105.32 20.9453 105.47 20.9452C106.67 20.9452 107.624 20.2868 108.332 18.9709C109.039 17.655 109.66 15.8104 110.195 13.438C110.388 12.5611 110.453 11.9131 110.389 11.4944C110.324 11.056 110.099 10.7667 109.713 10.627C109.349 10.4875 108.813 10.4166 108.105 10.4166C108.063 10.4163 108.042 10.3676 108.042 10.2686C108.042 10.1493 108.063 10.0884 108.105 10.0881ZM112.51 10.716C112.296 10.716 112.113 10.746 111.963 10.8058C111.813 10.8459 111.674 11.0163 111.545 11.3148C111.438 11.594 111.298 12.1029 111.127 12.84C110.848 14.1158 110.57 15.2422 110.291 16.219C110.013 17.1761 109.703 18.0144 109.36 18.7323C109.017 19.4299 108.61 20.0177 108.138 20.4961C107.99 20.6469 107.832 20.7861 107.665 20.9153H111.675C112.596 20.9153 113.26 20.9053 113.667 20.8854C114.074 20.8455 114.332 20.7155 114.439 20.4961C114.568 20.2568 114.632 19.848 114.632 19.2703V12.5714C114.632 11.9136 114.611 11.4643 114.568 11.225C114.546 10.9659 114.439 10.8166 114.246 10.7767C114.075 10.7369 113.764 10.716 113.314 10.716H112.51Z" fill="#F0E8DD"/>
<path fill-rule="evenodd" clip-rule="evenodd" d="M97.7686 9.75963C99.1402 9.75963 100.309 10.0589 101.273 10.657C102.259 11.2551 103.009 12.0229 103.524 12.9598C104.038 13.8968 104.295 14.8946 104.295 15.9513C104.295 17.1672 103.963 18.2436 103.298 19.1805C102.656 20.0976 101.799 20.8161 100.727 21.3345C99.6557 21.833 98.4871 22.0821 97.2227 22.0821C95.8725 22.0821 94.704 21.793 93.7181 21.2147C92.7325 20.6366 91.9716 19.8687 91.4358 18.9119C90.9001 17.9349 90.6328 16.8872 90.6328 15.7707C90.6329 14.7341 90.8469 13.8371 91.2754 13.0796C91.704 12.3219 92.2726 11.7035 92.9798 11.225C93.6869 10.7267 94.4584 10.3581 95.294 10.1189C96.1297 9.87972 96.9544 9.75967 97.7686 9.75963ZM96.6758 10.3875C95.8401 10.3876 95.1971 10.7368 94.7471 11.4346C94.3186 12.1324 94.1046 13.2094 94.1046 14.6647C94.1046 16.0204 94.2871 17.2173 94.6514 18.2541C95.0157 19.2706 95.5085 20.0577 96.1298 20.6159C96.7513 21.1742 97.4369 21.4542 98.187 21.4542C99.0442 21.4542 99.687 21.0649 100.116 20.2874C100.544 19.5098 100.758 18.4122 100.758 16.9966C100.758 15.5417 100.555 14.3258 100.148 13.349C99.7627 12.3721 99.2587 11.6336 98.6372 11.1352C98.0158 10.6367 97.3616 10.3875 96.6758 10.3875Z" fill="#F0E8DD"/>
<path fill-rule="evenodd" clip-rule="evenodd" d="M71.1513 9.87939C72.4798 9.87944 73.4984 10.1478 74.2056 10.686C74.9127 11.2044 75.2665 11.923 75.2665 12.84C75.2665 13.0591 75.2446 13.2587 75.2018 13.438C75.159 13.6172 75.0626 13.7073 74.9129 13.7074H72.9523L67.1573 13.7559C67.0993 14.1482 67.0689 14.5712 67.0689 15.024C67.0689 16.1403 67.262 17.1174 67.6477 17.9547C68.0334 18.792 68.5907 19.4396 69.3193 19.8982C70.0479 20.3568 70.9265 20.5868 71.9552 20.5868C72.4695 20.5868 73.0163 20.5168 73.5949 20.3773C74.1948 20.2377 74.7305 20.0275 75.2018 19.7485C75.2446 19.7091 75.2981 19.7297 75.3622 19.8092C75.4479 19.8889 75.4697 19.9582 75.427 20.018C74.634 20.7557 73.8192 21.2849 72.9833 21.604C72.1692 21.9029 71.2901 22.0522 70.3474 22.0522C68.9545 22.0521 67.7648 21.7821 66.779 21.2438C65.8148 20.7055 65.0748 19.9978 64.5605 19.1206C64.0678 18.2235 63.8223 17.2765 63.8223 16.2797C63.8223 15.1033 64.1436 14.0366 64.7866 13.0796C65.4295 12.1026 66.2976 11.325 67.3906 10.7468C68.5049 10.1687 69.7585 9.87944 71.1513 9.87939ZM69.9618 10.4773C69.1047 10.4774 68.4076 10.8958 67.8719 11.7331C67.6038 12.1421 67.4024 12.6215 67.2685 13.1703L71.8285 13.0734C71.8034 12.4182 71.6851 11.8618 71.4721 11.4046C71.1935 10.7866 70.6904 10.4774 69.9618 10.4773Z" fill="#F0E8DD"/>
<path d="M61.6867 3C61.7507 3.00025 61.7824 3.06037 61.7824 3.17965C61.7824 3.29879 61.7507 3.35816 61.6867 3.35841C60.7009 3.35842 59.9716 3.54845 59.5001 3.92729C59.0502 4.30612 58.8466 4.89465 58.8895 5.69205L59.6615 19.2703C59.7043 19.8484 59.7785 20.2878 59.8857 20.5868C60.0143 20.8857 60.2398 21.0851 60.5611 21.1848C60.8825 21.2845 61.3656 21.3345 62.0085 21.3345C62.0509 21.335 62.0722 21.3944 62.0723 21.5132C62.0723 21.6323 62.0509 21.6923 62.0085 21.6929C61.4513 21.6929 60.818 21.6829 60.1108 21.663C59.4037 21.643 58.6637 21.633 57.8923 21.633C57.0997 21.633 56.3603 21.643 55.6747 21.663C54.9891 21.6829 54.367 21.6929 53.8099 21.6929C53.7459 21.6926 53.7142 21.6326 53.7142 21.5132C53.7143 21.3941 53.7459 21.3347 53.8099 21.3345C54.817 21.3345 55.4608 21.2044 55.7395 20.9452C56.0392 20.6859 56.1564 20.1273 56.0922 19.2703L55.4113 7.04644L48.7951 21.4842C48.7734 21.5636 48.6877 21.6039 48.538 21.604C48.4097 21.6039 48.3239 21.5636 48.281 21.4842L40.1599 7.09928L39.8901 17.8939C39.8687 18.9506 40.0932 19.7891 40.5646 20.4072C41.0575 21.0253 41.7449 21.3345 42.6236 21.3345C42.6873 21.3349 42.7192 21.3943 42.7193 21.5132C42.7193 21.6324 42.6874 21.6924 42.6236 21.6929C42.1521 21.6929 41.6691 21.6829 41.1762 21.663C40.6833 21.643 40.126 21.633 39.5046 21.633C38.8191 21.633 38.1976 21.643 37.6406 21.663C37.0837 21.6829 36.5688 21.6929 36.0975 21.6929C36.0332 21.6929 36 21.6329 36 21.5132C36.0001 21.3939 36.0333 21.3345 36.0975 21.3345C36.9758 21.3343 37.6724 21.025 38.1866 20.4072C38.7009 19.7891 38.9691 18.9506 38.9905 17.8939L39.2703 5.52297L39.2475 5.48246C38.4331 4.06683 37.4576 3.35841 36.3217 3.35841C36.2576 3.35832 36.2261 3.29895 36.226 3.17965C36.2261 3.06022 36.2576 3.0001 36.3217 3C36.7718 3 37.2435 3.01001 37.7363 3.02994C38.2292 3.04988 38.6476 3.05988 38.9905 3.05988C39.5472 3.05988 40.0291 3.04985 40.4361 3.02994C40.8646 3.01001 41.1975 3.00001 41.4332 3C41.7331 3.00001 41.9577 3.10015 42.1077 3.29941C42.2791 3.4988 42.5482 3.91723 42.9125 4.55517L49.9225 16.7834L56.0284 3.74765C56.1569 3.46878 56.2855 3.27937 56.4139 3.17965C56.5639 3.06005 56.757 3.00003 56.9927 3C57.207 3 57.4324 3.01001 57.6681 3.02994C57.9038 3.04987 58.1825 3.05988 58.5039 3.05988C59.1896 3.05988 59.7688 3.04988 60.2402 3.02994C60.733 3.01002 61.2154 3 61.6867 3Z" fill="#F0E8DD"/>
<path d="M88.6066 9.43028C88.735 9.43036 88.799 9.48038 88.799 9.57998V11.0154C88.799 11.6134 88.7894 12.1921 88.768 12.7502V14.0069C88.7677 14.0664 88.7028 14.0966 88.5747 14.0967C88.4678 14.0967 88.4031 14.0664 88.3815 14.0069C87.9744 12.8507 87.5244 12.0329 87.0316 11.5543C86.5602 11.0559 85.9809 10.8059 85.2953 10.8058C84.9528 10.8059 84.7166 10.9362 84.588 11.195C84.481 11.4543 84.4276 11.9331 84.4276 12.6304V19.2703C84.4276 20.1275 84.5351 20.686 84.7493 20.9452C84.9638 21.2042 85.4348 21.3344 86.163 21.3345C86.2272 21.3345 86.2605 21.3939 86.2605 21.5132C86.2605 21.6329 86.2273 21.6929 86.163 21.6929C85.713 21.6929 85.2089 21.6829 84.6518 21.663C84.1162 21.643 83.5587 21.633 82.9802 21.633C82.3804 21.633 81.7913 21.643 81.2129 21.663C80.6557 21.6829 80.1404 21.6929 79.6689 21.6929C79.605 21.6925 79.5732 21.6325 79.5732 21.5132C79.5732 21.3942 79.605 21.3348 79.6689 21.3345C80.419 21.3345 80.902 21.2045 81.1163 20.9452C81.3305 20.686 81.4371 20.1275 81.4371 19.2703V12.6304C81.4371 11.9331 81.3846 11.4543 81.2776 11.195C81.1705 10.9361 80.9341 10.806 80.5703 10.8058C79.8631 10.8058 79.2727 11.0559 78.8012 11.5543C78.3298 12.0329 77.8798 12.8507 77.4513 14.0069C77.4297 14.0664 77.3544 14.0966 77.2262 14.0967C77.1194 14.0966 77.066 14.0664 77.0658 14.0069V12.7502C77.0658 12.1921 77.0544 11.6134 77.0329 11.0154V9.57998C77.0329 9.48036 77.0978 9.43034 77.2262 9.43028C77.3546 9.43033 77.4185 9.48034 77.4185 9.57998C77.4185 9.83912 77.8477 10.0083 78.7046 10.0881C79.5832 10.1479 81.0305 10.1779 83.0449 10.1779C84.2662 10.1779 85.2735 10.1688 86.0664 10.1489C86.8591 10.109 87.4489 10.0489 87.8346 9.96922C88.2204 9.88947 88.4134 9.75942 88.4134 9.57998C88.4134 9.48034 88.4782 9.43032 88.6066 9.43028Z" fill="#F0E8DD"/>
<path d="M10.5492 0H25.6196C25.6196 0 36.1689 28.0346 36.1689 30.1407C36.1689 32.2469 -3.83259e-06 32.1501 0 30.1407C3.83259e-06 28.1313 10.5492 0 10.5492 0Z" fill="#69715A"/>
<path d="M11.825 0.986984H17.875C17.875 0.986984 22 9.43249 22 15.0951C22 20.7577 8.525 29.987 8.525 29.987H1L11.825 0.986984Z" fill="#878C7E"/>
<path d="M35 28.987C35 30.0916 26.8366 30.987 18 30.987C9.16344 30.987 1.5 30.0916 1.5 28.987C1.5 27.8824 9.16344 26.987 18 26.987C26.8366 26.987 35 27.8824 35 28.987Z" fill="#29390C"/>
<path d="M24.9268 1C24.9866 1.15963 25.0572 1.34708 25.1367 1.55957C25.4249 2.3296 25.836 3.43225 26.3301 4.76172C27.3185 7.42133 28.6367 10.9886 29.9541 14.6211C31.272 18.255 32.5878 21.9493 33.5732 24.8633C34.0663 26.3212 34.4736 27.5756 34.7568 28.5264C34.8277 28.7643 34.8908 28.9808 34.9443 29.1748L35.0781 29.6895C34.9113 29.7382 34.6942 29.7928 34.4209 29.8467C33.4914 30.0299 32.1261 30.1875 30.4424 30.3145C27.0864 30.5675 22.5929 30.6896 18.0859 30.6836C13.5792 30.6776 9.08478 30.5433 5.72754 30.2871C4.04318 30.1586 2.67517 30.0021 1.74316 29.8223C1.47783 29.7711 1.26483 29.7194 1.09863 29.6729C1.16996 29.385 1.2748 29.0101 1.41113 28.5557C1.69458 27.6109 2.10259 26.3601 2.5957 24.9043C3.58131 21.9944 4.89689 18.2973 6.21484 14.6572C7.53235 11.0184 8.85039 7.44175 9.83887 4.77441C10.333 3.44095 10.745 2.33504 11.0332 1.5625C11.1129 1.34877 11.1832 1.16043 11.2432 1H24.9268Z" stroke="#B1A99E" stroke-width="2"/>
<path d="M18.3356 30.1407V44.2064" stroke="#B1A99E" stroke-width="2.5"/>
<path d="M6.02815 46.2158V47.7228H29.6384V46.2158L19.5915 44.2064H16.5774L6.02815 46.2158Z" fill="#A1988C"/>
<path d="M14.3168 47.7228V47.974H29.8895V46.4669L24.1126 45.2111C24.1126 45.2111 23.3893 46.134 22.8567 46.4669C20.8473 47.7228 14.3168 47.7228 14.3168 47.7228Z" fill="#B1A99E"/>
<path d="M6.27933 46.2158V47.7228H29.8896V46.2158L19.8426 44.2064H16.8286L6.27933 46.2158Z" stroke="#B1A99E"/>
<path d="M24.1266 33.7444C24.7117 33.9515 25.1313 34.5082 25.1313 35.1642C25.1313 35.9965 24.4566 36.6712 23.6243 36.6712C22.792 36.6712 22.1172 35.9965 22.1172 35.1642C22.1172 34.5082 22.5369 33.9515 23.1219 33.7444V27.7594L24.1266 27.819V33.7444Z" fill="#BDC4C0"/>
</svg>
