<svg width="30" height="30" viewBox="0 0 30 30" fill="none" xmlns="http://www.w3.org/2000/svg">
<rect width="30" height="30" rx="3" fill="#BDC4C0"/>
<path d="M18.408 12.6236L18.6861 12.3455C19.1468 11.8848 19.8937 11.8848 20.3545 12.3455C20.8152 12.8062 20.8152 13.5532 20.3545 14.0139L20.0764 14.292M18.408 12.6236C18.408 12.6236 18.4428 13.2145 18.9641 13.7359C19.4855 14.2572 20.0764 14.292 20.0764 14.292M18.408 12.6236L15.8516 15.18C15.6785 15.3531 15.5919 15.4397 15.5175 15.5352C15.4296 15.6478 15.3543 15.7696 15.2929 15.8985C15.2408 16.0078 15.2021 16.1239 15.1247 16.3562L14.8767 17.1L14.7965 17.3406M20.0764 14.292L17.52 16.8484C17.3469 17.0215 17.2603 17.1081 17.1648 17.1825C17.0522 17.2704 16.9304 17.3457 16.8015 17.4071C16.6922 17.4592 16.5761 17.4979 16.3437 17.5753L15.6 17.8232L15.3594 17.9035M15.3594 17.9035L15.1187 17.9837C15.0044 18.0218 14.8784 17.992 14.7932 17.9068C14.708 17.8216 14.6782 17.6956 14.7163 17.5812L14.7965 17.3406M15.3594 17.9035L14.7965 17.3406" stroke="#29390C"/>
<path d="M12.3 15.6H13.8" stroke="#29390C" stroke-linecap="round"/>
<path d="M12.3 13.2H16.2" stroke="#29390C" stroke-linecap="round"/>
<path d="M12.3 18H13.2" stroke="#29390C" stroke-linecap="round"/>
<path d="M19.397 9.70294C18.6941 9 17.5627 9 15.3 9H14.1C11.8373 9 10.7059 9 10.0029 9.70294C9.3 10.4059 9.3 11.5373 9.3 13.8V16.2C9.3 18.4627 9.3 19.5941 10.0029 20.2971C10.7059 21 11.8373 21 14.1 21H15.3C17.5627 21 18.6941 21 19.397 20.2971C19.9629 19.7312 20.0732 18.8877 20.0948 17.4" stroke="#29390C" stroke-linecap="round"/>
</svg>
