<svg width="36" height="36" viewBox="0 0 36 36" fill="none" xmlns="http://www.w3.org/2000/svg">
<rect width="36" height="36" rx="5" fill="#BDC4C0"/>
<path d="M10 13.04L10 12.28C10 11.0208 11.0745 10 12.4 10C13.7255 10 14.8 11.0208 14.8 12.28L14.8 13.04M10 13.04C10 13.04 10.9 13.8 12.4 13.8C13.9 13.8 14.8 13.04 14.8 13.04M10 13.04L10 20.827C10 21.3003 10 21.5369 10.0302 21.7691C10.0659 22.043 10.1328 22.3124 10.2299 22.5726C10.3122 22.7931 10.4235 23.0047 10.6463 23.428L11.5904 25.2217M14.8 13.04L14.8 20.827C14.8 21.3003 14.8 21.5369 14.7698 21.7691C14.7341 22.043 14.6672 22.3124 14.5701 22.5726C14.4878 22.7931 14.3765 23.0047 14.1537 23.428L13.2096 25.2217M13.2096 25.2217L12.9789 25.6601C12.8693 25.8684 12.6451 26 12.4 26C12.1549 26 11.9307 25.8684 11.8211 25.6601L11.5904 25.2217M13.2096 25.2217H11.5904" stroke="#29390C" stroke-width="1.5"/>
<path d="M18 18H19.6M18 13.2L19.6 13.2M18 22.8H19.6M18 20.4L20.4 20.4M18 15.6L20.4 15.6" stroke="#29390C" stroke-width="1.5" stroke-linecap="round"/>
<path d="M21.2 26C19.6915 26 18.9373 26 18.4686 25.5314C18 25.0627 18 24.3085 18 22.8L18 13.2C18 11.6915 18 10.9373 18.4686 10.4686C18.9373 10 19.6915 10 21.2 10L22.8 10C24.3085 10 25.0627 10 25.5314 10.4686C26 10.9373 26 11.6915 26 13.2V22.8C26 24.3085 26 25.0627 25.5314 25.5314C25.0627 26 24.3085 26 22.8 26H21.2Z" stroke="#29390C" stroke-width="1.5"/>
</svg>
