<svg width="16" height="16" viewBox="0 0 16 16" fill="none" xmlns="http://www.w3.org/2000/svg">
<path fill-rule="evenodd" clip-rule="evenodd" d="M9.09643 3.65714C10.485 3.65714 11.6107 4.78283 11.6107 6.17143C11.6107 7.56003 10.485 8.68571 9.09643 8.68571H7.22232V8.77679H8C8.37842 8.77698 8.68552 9.08408 8.68571 9.4625C8.68571 9.84109 8.37855 10.148 8 10.1482H7.22232V11.6571C7.22232 12.0359 6.91532 12.3429 6.53661 12.3429C6.15813 12.3426 5.85089 12.0357 5.85089 11.6571V10.1482H5.80536C5.4268 10.148 5.11964 9.8411 5.11964 9.4625C5.11984 9.08407 5.42692 8.77697 5.80536 8.77679H5.85089V8.68571H5.80536C5.4268 8.68553 5.11964 8.3786 5.11964 8C5.11964 7.6214 5.4268 7.31447 5.80536 7.31429H5.85089V5.22054C5.85089 5.11087 5.84919 4.97623 5.86875 4.85268C5.96477 4.24646 6.44027 3.77122 7.04643 3.675C7.16982 3.65546 7.30469 3.65714 7.41429 3.65714H9.09643ZM7.27321 5.02946C7.24671 5.0302 7.24816 5.0314 7.26071 5.02946C7.24156 5.03281 7.22634 5.04773 7.22321 5.06696C7.22528 5.05386 7.22396 5.05217 7.22321 5.07946C7.22241 5.10896 7.22232 5.14899 7.22232 5.22054V7.31429H9.09643C9.72761 7.31429 10.2393 6.80261 10.2393 6.17143C10.2393 5.54025 9.72761 5.02857 9.09643 5.02857H7.41429C7.34296 5.02857 7.30265 5.02866 7.27321 5.02946Z" fill="#29390C"/>
<path fill-rule="evenodd" clip-rule="evenodd" d="M8 0C12.4183 0 16 3.58172 16 8C16 12.4183 12.4183 16 8 16C3.58172 16 0 12.4183 0 8C0 3.58172 3.58172 0 8 0ZM8 1.37143C4.33914 1.37143 1.37143 4.33914 1.37143 8C1.37143 11.6609 4.33914 14.6286 8 14.6286C11.6609 14.6286 14.6286 11.6609 14.6286 8C14.6286 4.33914 11.6609 1.37143 8 1.37143Z" fill="#29390C"/>
</svg>
