<svg width="30" height="30" viewBox="0 0 30 30" fill="none" xmlns="http://www.w3.org/2000/svg">
<rect width="30" height="30" rx="3" fill="#BDC4C0"/>
<path d="M9 11.4V18.9C9 19.7427 9 20.164 9.20224 20.4667C9.28979 20.5977 9.40229 20.7102 9.53332 20.7978C9.83598 21 10.2573 21 11.1 21C11.9427 21 12.364 21 12.6667 20.7978C12.7977 20.7102 12.9102 20.5977 12.9978 20.4667C13.2 20.164 13.2 19.7427 13.2 18.9V14.4C13.2 13.8343 13.2 13.5515 13.3757 13.3757C13.5515 13.2 13.8343 13.2 14.4 13.2H18.9C19.7427 13.2 20.164 13.2 20.4667 12.9978C20.5977 12.9102 20.7102 12.7977 20.7978 12.6667C21 12.364 21 11.9427 21 11.1C21 10.2573 21 9.83598 20.7978 9.53332C20.7102 9.40229 20.5977 9.28979 20.4667 9.20224C20.164 9 19.7427 9 18.9 9H11.4C10.2686 9 9.70294 9 9.35147 9.35147C9 9.70294 9 10.2686 9 11.4Z" stroke="#29390C" stroke-linecap="round"/>
<path d="M15 9L15 10.2M18.6 9L18.6 10.2M13.2 9L13.2 10.8M16.8 9L16.8 10.8" stroke="#29390C" stroke-linecap="round"/>
<path d="M9 15H10.2M9 18.6H10.2M9 16.8L10.8 16.8M9 13.2L10.8 13.2" stroke="#29390C" stroke-linecap="round"/>
</svg>
