<svg width="45" height="45" viewBox="0 0 45 45" fill="none" xmlns="http://www.w3.org/2000/svg">
<rect width="45" height="45" rx="8" fill="#BDC4C0"/>
<path d="M26.755 12H17.245C16.0861 12 15.5067 12 15.0394 12.1626C14.1532 12.471 13.4575 13.1872 13.158 14.0995C13 14.5805 13 15.1771 13 16.3701V30.3742C13 31.2324 13.985 31.6878 14.6081 31.1176C14.9742 30.7826 15.5258 30.7826 15.8919 31.1176L16.375 31.5597C17.0166 32.1468 17.9834 32.1468 18.625 31.5597C19.2666 30.9726 20.2334 30.9726 20.875 31.5597C21.5166 32.1468 22.4834 32.1468 23.125 31.5597C23.7666 30.9726 24.7334 30.9726 25.375 31.5597C26.0166 32.1468 26.9834 32.1468 27.625 31.5597L28.1081 31.1176C28.4742 30.7826 29.0258 30.7826 29.3919 31.1176C30.015 31.6878 31 31.2324 31 30.3742V16.3701C31 15.1771 31 14.5805 30.842 14.0995C30.5425 13.1872 29.8468 12.471 28.9606 12.1626C28.4933 12 27.9139 12 26.755 12Z" stroke="#29390C" stroke-width="1.5"/>
<path d="M19.5 20.4L20.9286 22L24.5 18" stroke="#29390C" stroke-width="1.5" stroke-linecap="round" stroke-linejoin="round"/>
<path d="M17.5 25.5H26.5" stroke="#29390C" stroke-width="1.5" stroke-linecap="round"/>
</svg>
