<svg width="12" height="14" viewBox="0 0 12 14" fill="none" xmlns="http://www.w3.org/2000/svg">
<path d="M11.4276 12.8C11.7436 12.8002 12 13.0687 12 13.4C12 13.7313 11.7436 13.9998 11.4276 14H0.572422C0.256368 13.9999 0 13.7313 0 13.4C0 13.0687 0.256368 12.8001 0.572422 12.8H11.4276Z" fill="#29390C"/>
<path d="M5.63851 1.9125C5.86334 1.72039 6.19518 1.73427 6.40472 1.95391L8.4395 4.0875C8.66302 4.32182 8.66304 4.70163 8.4395 4.93594C8.21592 5.16967 7.85342 5.17004 7.63006 4.93594L6.57242 3.82656V10.1734L7.63006 9.06484C7.85354 8.8306 8.21594 8.83075 8.4395 9.06484C8.66302 9.29916 8.66304 9.67898 8.4395 9.91328L6.40472 12.0469C6.18121 12.2808 5.81874 12.2809 5.59528 12.0469L3.55975 9.91328C3.33639 9.67907 3.33654 9.29916 3.55975 9.06484C3.78328 8.83064 4.14567 8.83064 4.36919 9.06484L5.42758 10.1742V3.82656L4.36919 4.93594C4.14566 5.16975 3.78317 5.16995 3.55975 4.93594C3.33635 4.70177 3.33663 4.32185 3.55975 4.0875L5.59528 1.95391L5.63851 1.9125Z" fill="#29390C"/>
<path d="M11.4276 0C11.7436 0.000187426 12 0.268745 12 0.6C12 0.931255 11.7436 1.19981 11.4276 1.2H0.572422C0.256368 1.19989 0 0.931306 0 0.6C0 0.268694 0.256368 0.00010553 0.572422 0H11.4276Z" fill="#29390C"/>
</svg>
