<svg width="16" height="17" viewBox="0 0 16 17" fill="none" xmlns="http://www.w3.org/2000/svg">
<path d="M8.39038 3.54964e-07C9.84556 3.54964e-07 10.996 -0.00111212 11.8943 0.12123C12.8092 0.245877 13.5496 0.508651 14.1336 1.10034C14.3622 1.33193 14.3622 1.70732 14.1336 1.93891C13.905 2.17026 13.5344 2.17042 13.3059 1.93891C12.9755 1.60428 12.5233 1.40342 11.738 1.29647C10.9359 1.18723 9.87861 1.18605 8.39038 1.18605H6.82938C5.34116 1.18605 4.28385 1.18723 3.48177 1.29647C2.69651 1.40342 2.24422 1.60428 1.9139 1.93891C1.58359 2.27354 1.38532 2.73174 1.27975 3.52725C1.17192 4.33982 1.17075 5.41094 1.17075 6.9186V10.0814C1.17075 11.5891 1.17192 12.6602 1.27975 13.4727C1.38532 14.2683 1.58359 14.7265 1.9139 15.0611C2.24422 15.3957 2.69651 15.5966 3.48177 15.7035C4.28385 15.8128 5.34116 15.814 6.82938 15.814H8.39038C9.87861 15.814 10.9359 15.8128 11.738 15.7035C12.5233 15.5966 12.9755 15.3957 13.3059 15.0611C13.849 14.5108 14.0136 13.656 14.0422 11.6543C14.0468 11.3269 14.3127 11.0651 14.6359 11.0698C14.9591 11.0745 15.2175 11.3438 15.2129 11.6713C15.1855 13.5907 15.0626 14.9586 14.1336 15.8997C13.5496 16.4914 12.8092 16.7541 11.8943 16.8788C10.996 17.0011 9.84556 17 8.39038 17H6.82938C5.3742 17 4.22375 17.0011 3.32551 16.8788C2.41053 16.7541 1.6702 16.4914 1.08615 15.8997C0.502091 15.308 0.242707 14.558 0.119667 13.631C-0.00109778 12.7211 3.50386e-07 11.5556 3.50386e-07 10.0814V6.9186C3.50199e-07 5.44442 -0.00109783 4.27893 0.119667 3.36896C0.242707 2.44202 0.502091 1.69202 1.08615 1.10034C1.6702 0.50865 2.41053 0.245877 3.32551 0.12123C4.22375 -0.00111217 5.3742 3.54774e-07 6.82938 3.54964e-07H8.39038Z" fill="#29390C"/>
<path d="M5.65863 11.8605C5.98192 11.8605 6.24401 12.126 6.24401 12.4535C6.24401 12.781 5.98192 13.0465 5.65863 13.0465H4.48788C4.16459 13.0465 3.9025 12.781 3.9025 12.4535C3.9025 12.126 4.16459 11.8605 4.48788 11.8605H5.65863Z" fill="#29390C"/>
<path fill-rule="evenodd" clip-rule="evenodd" d="M12.3813 4.5828C13.2092 3.74408 14.5512 3.74408 15.3791 4.5828C16.207 5.42153 16.207 6.781 15.3791 7.61973L15.0178 7.98651L11.6923 11.3555C11.4769 11.5736 11.3353 11.7178 11.1763 11.8435C10.9963 11.9857 10.8015 12.1077 10.5954 12.2072C10.4133 12.2951 10.2222 12.359 9.93309 12.4566L8.34008 12.9948C7.98102 13.116 7.58482 13.0211 7.31719 12.75C7.04957 12.4789 6.95589 12.0775 7.07557 11.7138L7.60683 10.0999C7.7032 9.80705 7.76622 9.61343 7.85303 9.42892C7.95123 9.2202 8.07166 9.02284 8.21203 8.84053C8.33606 8.67945 8.4784 8.53592 8.69374 8.31777L12.0193 4.94881L12.3813 4.5828ZM9.52226 9.15634C9.28727 9.39441 9.20468 9.4798 9.13506 9.57022C9.04698 9.68464 8.97106 9.80833 8.90945 9.93932C8.86078 10.0428 8.82241 10.1559 8.71737 10.4752L8.40486 11.4242L8.62514 11.6473L9.56266 11.3315C9.87779 11.2251 9.98949 11.1862 10.0916 11.1369C10.2209 11.0745 10.343 10.9976 10.456 10.9084C10.5452 10.8379 10.6295 10.7542 10.8645 10.5161L13.5155 7.83053C13.2674 7.69851 12.9991 7.51361 12.7426 7.25372C12.4857 6.99352 12.3028 6.72156 12.1725 6.46998L9.52226 9.15634ZM14.6451 6.97575L14.6435 6.97497H14.6405C14.6431 6.97525 14.6451 6.97575 14.6451 6.97575ZM14.5513 5.42138C14.1806 5.04583 13.5798 5.04583 13.2091 5.42138L13.0681 5.56345C13.0758 5.59025 13.0837 5.61916 13.094 5.64916C13.1674 5.86354 13.3069 6.14676 13.5711 6.41438C13.8353 6.682 14.1148 6.82337 14.3265 6.89776C14.3557 6.90805 14.3841 6.91543 14.4103 6.92324L14.5513 6.78116C14.922 6.40561 14.922 5.79692 14.5513 5.42138ZM13.0177 5.33026V5.32794L13.017 5.3264C13.017 5.3264 13.0175 5.32807 13.0177 5.33026Z" fill="#29390C"/>
<path d="M6.43913 8.69767C6.76242 8.69767 7.02451 8.96318 7.02451 9.2907C7.02451 9.61822 6.76242 9.88372 6.43913 9.88372H4.48788C4.16459 9.88372 3.9025 9.61822 3.9025 9.2907C3.9025 8.96318 4.16459 8.69767 4.48788 8.69767H6.43913Z" fill="#29390C"/>
<path d="M9.56113 5.53488C9.88443 5.53488 10.1465 5.80039 10.1465 6.12791C10.1465 6.45543 9.88443 6.72093 9.56113 6.72093H4.48788C4.16459 6.72093 3.9025 6.45543 3.9025 6.12791C3.9025 5.80039 4.16459 5.53488 4.48788 5.53488H9.56113Z" fill="#29390C"/>
</svg>
