<svg width="17" height="17" viewBox="0 0 17 17" fill="none" xmlns="http://www.w3.org/2000/svg">
<path fill-rule="evenodd" clip-rule="evenodd" d="M11.3591 0C11.8758 0 12.3034 0.215341 12.7095 0.525097C13.1018 0.824444 13.5384 1.26332 14.0656 1.79054L15.2095 2.93436C15.7367 3.46158 16.1756 3.8982 16.4749 4.29054C16.7847 4.69655 17 5.12421 17 5.64093C17 6.15764 16.7847 6.5853 16.4749 6.99131C16.1756 7.38366 15.7367 7.82027 15.2095 8.34749L8.34749 15.2095C7.82027 15.7367 7.38366 16.1756 6.99131 16.4749C6.5853 16.7847 6.15764 17 5.64093 17C5.12421 17 4.69655 16.7847 4.29054 16.4749C3.8982 16.1756 3.46158 15.7367 2.93436 15.2095L1.79054 14.0656C1.26332 13.5384 0.824444 13.1018 0.525097 12.7095C0.215341 12.3034 0 11.8758 0 11.3591C3.82919e-06 10.8424 0.215337 10.4147 0.525097 10.0087C0.824446 9.61634 1.26332 9.17973 1.79054 8.65251L8.65251 1.79054C9.17973 1.26332 9.61634 0.824446 10.0087 0.525097C10.4147 0.215337 10.8424 3.82918e-06 11.3591 0ZM11.3591 1.18533C11.206 1.18533 11.029 1.23914 10.7288 1.46815C10.4846 1.65443 10.2068 1.92111 9.83591 2.28861L10.5965 3.04826C10.828 3.27987 10.8281 3.6555 10.5965 3.88707C10.3649 4.11852 9.98927 4.11765 9.75772 3.8861L8.99517 3.12355L8.15541 3.96236L9.47876 5.28571C9.70984 5.51727 9.70997 5.89208 9.47876 6.12355C9.24725 6.35506 8.87158 6.35488 8.63996 6.12355L7.31757 4.80116L6.47876 5.64093L7.24131 6.40347C7.47276 6.63509 7.47383 7.01073 7.24228 7.24228C7.01072 7.47373 6.63506 7.47273 6.40347 7.24131L5.64093 6.47876L4.80116 7.31757L6.12355 8.63996C6.35488 8.87158 6.35506 9.24725 6.12355 9.47876C5.8921 9.71 5.51729 9.70981 5.28571 9.47876L3.96236 8.15541L3.12355 8.99517L3.8861 9.75772C4.1177 9.98932 4.11867 10.3649 3.88707 10.5965C3.65546 10.8281 3.27985 10.8271 3.04826 10.5956L2.28861 9.83591C1.92111 10.2068 1.65443 10.4846 1.46815 10.7288C1.23914 11.029 1.18533 11.206 1.18533 11.3591C1.18533 11.5122 1.23884 11.6898 1.46815 11.9903C1.70789 12.3045 2.0785 12.676 2.62934 13.2268L3.77317 14.3707C4.32401 14.9215 4.69547 15.2921 5.00965 15.5319C5.3102 15.7612 5.48777 15.8147 5.64093 15.8147C5.794 15.8147 5.97098 15.7609 6.27124 15.5319C6.58545 15.2921 6.95776 14.9216 7.50869 14.3707L14.3707 7.50869C14.9216 6.95776 15.2921 6.58545 15.5319 6.27124C15.7609 5.97098 15.8147 5.794 15.8147 5.64093C15.8147 5.48777 15.7612 5.3102 15.5319 5.00965C15.2921 4.69547 14.9215 4.32401 14.3707 3.77317L13.2268 2.62934C12.676 2.0785 12.3045 1.70789 11.9903 1.46815C11.6898 1.23884 11.5122 1.18533 11.3591 1.18533Z" fill="#29390C"/>
</svg>
