<svg width="16" height="16" viewBox="0 0 16 16" fill="none" xmlns="http://www.w3.org/2000/svg">
<path fill-rule="evenodd" clip-rule="evenodd" d="M7.48493 0C8.08932 0.000107472 8.59019 0.253156 9.06705 0.616956C9.52812 0.968788 10.0417 1.48443 10.6626 2.10533L10.7188 2.16158C10.8595 2.0256 10.9977 1.90267 11.1492 1.81515C11.7148 1.48858 12.4121 1.48866 12.9777 1.81515C13.2057 1.94687 13.406 2.15591 13.625 2.37497C13.8441 2.59405 14.0531 2.79435 14.1848 3.02228C14.5115 3.58798 14.5115 4.28513 14.1848 4.85083C14.0973 5.00235 13.9735 5.13954 13.8375 5.28029L13.8947 5.33743C14.5156 5.95833 15.0312 6.47187 15.383 6.93294C15.7469 7.40985 15.9999 7.9106 16 8.51507C16 9.1197 15.747 9.62107 15.383 10.0981C15.0312 10.5591 14.5156 11.0727 13.8947 11.6936C13.2738 12.3145 12.7602 12.8301 12.2992 13.182C11.8222 13.5458 11.3207 13.7989 10.7161 13.7989C10.1118 13.7987 9.61086 13.5458 9.13402 13.182C8.67296 12.8301 8.15939 12.3145 7.5385 11.6936L7.48493 11.64L3.92962 15.1953C3.71046 15.4145 3.5095 15.6235 3.28141 15.7551C2.71577 16.0815 2.01845 16.0817 1.45286 15.7551C1.22478 15.6234 1.02385 15.4145 0.804658 15.1953C0.585456 14.9761 0.37655 14.7752 0.244843 14.5471C-0.081645 13.9815 -0.0815839 13.2842 0.244843 12.7186C0.376528 12.4905 0.585493 12.2895 0.804658 12.0704L4.35997 8.51507L4.3064 8.46149C3.6855 7.84059 3.16986 7.32705 2.81802 6.86598C2.45421 6.38911 2.20117 5.88827 2.20107 5.28386C2.20107 4.67928 2.45413 4.17782 2.81802 3.70084C3.16987 3.23978 3.6855 2.72622 4.3064 2.10533C4.92728 1.48445 5.44086 0.968821 5.90191 0.616956C6.37885 0.253063 6.88042 7.57554e-05 7.48493 0ZM1.77518 13.04C1.49404 13.3211 1.45196 13.3719 1.43322 13.4043C1.35168 13.5456 1.35168 13.7201 1.43322 13.8614C1.45201 13.8938 1.49452 13.9441 1.77518 14.2248C2.05538 14.505 2.10616 14.5479 2.13857 14.5668C2.27989 14.6484 2.45436 14.6483 2.59571 14.5668C2.6281 14.548 2.67884 14.506 2.95999 14.2248L6.51441 10.6695L5.3296 9.4847L1.77518 13.04ZM7.48493 1.37141C7.30078 1.37147 7.08889 1.43638 6.73405 1.70712C6.36326 1.99007 5.92439 2.4266 5.27603 3.07496C4.62765 3.72334 4.19112 4.16218 3.90819 4.53298C3.6374 4.88792 3.57248 5.09966 3.57248 5.28386C3.57257 5.46796 3.63759 5.67915 3.90819 6.03385C4.19111 6.40465 4.62763 6.84347 5.27603 7.49186L8.50813 10.724C9.1565 11.3723 9.59536 11.8089 9.96615 12.0918C10.3208 12.3624 10.5321 12.4274 10.7161 12.4275C10.9003 12.4275 11.1121 12.3626 11.467 12.0918C11.8378 11.8089 12.2767 11.3723 12.925 10.724C13.5734 10.0756 14.0099 9.63674 14.2929 9.26595C14.5638 8.91093 14.6286 8.69928 14.6286 8.51507C14.6285 8.33094 14.5636 8.11985 14.2929 7.76508C14.0099 7.39428 13.5734 6.95545 12.925 6.30706L9.69294 3.07496C9.04454 2.42657 8.60572 1.99004 8.23492 1.70712C7.88025 1.43655 7.66903 1.3715 7.48493 1.37141ZM12.292 3.00264C12.1507 2.92113 11.9762 2.92107 11.8349 3.00264C11.8136 3.01495 11.7852 3.03801 11.6884 3.13121L12.8679 4.31066C12.9612 4.21383 12.9851 4.18638 12.9974 4.16512C13.079 4.02374 13.079 3.84936 12.9974 3.70799C12.9785 3.67558 12.9357 3.6249 12.6554 3.3446C12.3749 3.06408 12.3244 3.02144 12.292 3.00264Z" fill="#29390C"/>
</svg>
