<svg width="30" height="30" viewBox="0 0 30 30" fill="none" xmlns="http://www.w3.org/2000/svg">
<rect width="30" height="30" rx="8" fill="#BDC4C0"/>
<path d="M18 9.00146C19.6313 9.01055 20.5147 9.08288 21.091 9.65917C21.75 10.3182 21.75 11.3788 21.75 13.5002V18.0002C21.75 20.1215 21.75 21.1821 21.091 21.8412C20.432 22.5002 19.3713 22.5002 17.25 22.5002H12.75C10.6287 22.5002 9.56802 22.5002 8.90901 21.8412C8.25 21.1821 8.25 20.1215 8.25 18.0002V13.5002C8.25 11.3788 8.25 10.3182 8.90901 9.65917C9.4853 9.08288 10.3687 9.01055 12 9.00146" stroke="#1C274C" stroke-width="1.2"/>
<path d="M11.25 16.875H17.25" stroke="#1C274C" stroke-width="1.2" stroke-linecap="round"/>
<path d="M11.25 19.5H15.375" stroke="#1C274C" stroke-width="1.2" stroke-linecap="round"/>
<path d="M12 8.625C12 8.00368 12.5037 7.5 13.125 7.5H16.875C17.4963 7.5 18 8.00368 18 8.625V9.375C18 9.99632 17.4963 10.5 16.875 10.5H13.125C12.5037 10.5 12 9.99632 12 9.375V8.625Z" stroke="#1C274C" stroke-width="1.2"/>
</svg>
