<svg width="30" height="30" viewBox="0 0 30 30" fill="none" xmlns="http://www.w3.org/2000/svg">
<rect width="30" height="30" rx="8" fill="#BDC4C0"/>
<path d="M11.3438 11.3827L11.0438 11.9023L11.3438 11.3827ZM10.9091 10.9481L10.3895 11.2481L10.9091 10.9481ZM20.0909 10.9481L20.6105 11.2481L20.0909 10.9481ZM19.6563 11.3827L19.9563 11.9023L19.6563 11.3827ZM19.6563 7.74259L19.9563 7.22298L19.6563 7.74259ZM20.0909 8.17725L20.6105 7.87725L20.0909 8.17725ZM11.3438 7.74259L11.0438 7.22298L11.3438 7.74259ZM10.9091 8.17725L10.3895 7.87725L10.9091 8.17725ZM16.8515 23.185L16.4272 22.7607L16.4272 22.7607L16.8515 23.185ZM16.8515 17.3154L16.4272 17.7396L16.4272 17.7396L16.8515 17.3154ZM14.1485 17.3154L13.7243 16.8911L13.7243 16.8911L14.1485 17.3154ZM14.1485 23.185L14.5728 22.7607L14.5728 22.7607L14.1485 23.185ZM18.1969 14.6998L18.1079 14.1064L18.1079 14.1064L18.1969 14.6998ZM21.4243 14.2157L21.3352 13.6223L21.3352 13.6223L21.4243 14.2157ZM23.3066 10.566L23.8649 10.3462L23.8649 10.3462L23.3066 10.566ZM22.4134 9.67273L22.1936 10.231L22.4134 9.67273ZM22.5763 13.9515L22.2947 13.4216L22.2947 13.4216L22.5763 13.9515ZM23.3263 13.0806L23.892 13.2804L23.892 13.2804L23.3263 13.0806ZM15.8836 15.4347L15.4289 15.0431L15.4289 15.0431L15.8836 15.4347ZM15.5037 17.0835V17.6835H16.0938L16.1036 17.0935L15.5037 17.0835ZM10.3542 8.96266C10.0228 8.96266 9.75417 9.23129 9.75417 9.56266C9.75417 9.89403 10.0228 10.1627 10.3542 10.1627V9.56266V8.96266ZM12.7292 7.5835V8.1835H18.2708V7.5835V6.9835H12.7292V7.5835ZM18.2708 11.5418V10.9418H12.7292V11.5418V12.1418H18.2708V11.5418ZM12.7292 11.5418V10.9418C12.3482 10.9418 12.1025 10.9413 11.9165 10.9244C11.7387 10.9083 11.675 10.8812 11.6438 10.8631L11.3438 11.3827L11.0438 11.9023C11.2881 12.0434 11.5471 12.0958 11.8082 12.1195C12.061 12.1424 12.3703 12.1418 12.7292 12.1418V11.5418ZM10.75 9.56266H10.15C10.15 9.92157 10.1494 10.2309 10.1723 10.4837C10.196 10.7447 10.2484 11.0038 10.3895 11.2481L10.9091 10.9481L11.4287 10.6481C11.4107 10.6168 11.3836 10.5531 11.3674 10.3753C11.3506 10.1893 11.35 9.94366 11.35 9.56266H10.75ZM11.3438 11.3827L11.6438 10.8631C11.5544 10.8116 11.4803 10.7374 11.4287 10.6481L10.9091 10.9481L10.3895 11.2481C10.5464 11.5198 10.772 11.7455 11.0438 11.9023L11.3438 11.3827ZM20.25 9.56266H19.65C19.65 9.94366 19.6494 10.1893 19.6326 10.3753C19.6165 10.5531 19.5893 10.6168 19.5713 10.6481L20.0909 10.9481L20.6105 11.2481C20.7516 11.0038 20.804 10.7447 20.8277 10.4837C20.8506 10.2309 20.85 9.92157 20.85 9.56266H20.25ZM18.2708 11.5418V12.1418C18.6297 12.1418 18.939 12.1424 19.1918 12.1195C19.4529 12.0958 19.7119 12.0434 19.9563 11.9023L19.6563 11.3827L19.3563 10.8631C19.325 10.8812 19.2613 10.9083 19.0835 10.9244C18.8975 10.9413 18.6518 10.9418 18.2708 10.9418V11.5418ZM20.0909 10.9481L19.5713 10.6481C19.5197 10.7374 19.4456 10.8116 19.3563 10.8631L19.6563 11.3827L19.9563 11.9023C20.228 11.7455 20.4536 11.5198 20.6105 11.2481L20.0909 10.9481ZM18.2708 7.5835V8.1835C18.6518 8.1835 18.8975 8.18407 19.0835 8.20093C19.2613 8.21705 19.325 8.24417 19.3563 8.26221L19.6563 7.74259L19.9563 7.22298C19.7119 7.08192 19.4529 7.02949 19.1918 7.00583C18.939 6.98292 18.6297 6.9835 18.2708 6.9835V7.5835ZM20.25 9.56266H20.85C20.85 9.20375 20.8506 8.89445 20.8277 8.64167C20.804 8.38063 20.7516 8.12157 20.6105 7.87725L20.0909 8.17725L19.5713 8.47725C19.5893 8.50849 19.6165 8.57218 19.6326 8.74998C19.6494 8.93604 19.65 9.18167 19.65 9.56266H20.25ZM19.6563 7.74259L19.3563 8.26221C19.4456 8.31377 19.5197 8.38793 19.5713 8.47725L20.0909 8.17725L20.6105 7.87725C20.4536 7.60551 20.228 7.37986 19.9563 7.22298L19.6563 7.74259ZM12.7292 7.5835V6.9835C12.3703 6.9835 12.061 6.98292 11.8082 7.00583C11.5471 7.02949 11.2881 7.08192 11.0438 7.22298L11.3438 7.74259L11.6438 8.26221C11.675 8.24417 11.7387 8.21705 11.9165 8.20093C12.1025 8.18407 12.3482 8.1835 12.7292 8.1835V7.5835ZM10.75 9.56266H11.35C11.35 9.18167 11.3506 8.93604 11.3674 8.74998C11.3836 8.57218 11.4107 8.50849 11.4287 8.47725L10.9091 8.17725L10.3895 7.87725C10.2484 8.12157 10.196 8.38063 10.1723 8.64167C10.1494 8.89445 10.15 9.20375 10.15 9.56266H10.75ZM11.3438 7.74259L11.0438 7.22298C10.772 7.37986 10.5464 7.60551 10.3895 7.87725L10.9091 8.17725L11.4287 8.47725C11.4803 8.38793 11.5544 8.31377 11.6438 8.26221L11.3438 7.74259ZM13.9167 21.8335H14.5167V18.6668H13.9167H13.3167V21.8335H13.9167ZM17.0833 18.6668H16.4833V21.8335H17.0833H17.6833V18.6668H17.0833ZM17.0833 21.8335H16.4833C16.4833 22.2237 16.4821 22.4559 16.4597 22.6222C16.4495 22.6983 16.4375 22.7361 16.4306 22.7526C16.4276 22.7601 16.4259 22.7625 16.4262 22.762C16.4266 22.7613 16.4273 22.7606 16.4272 22.7607L16.8515 23.185L17.2757 23.6092C17.5217 23.3632 17.6111 23.0642 17.649 22.7821C17.6846 22.5173 17.6833 22.1897 17.6833 21.8335H17.0833ZM15.5 23.4168V24.0168C15.8562 24.0168 16.1838 24.0181 16.4486 23.9825C16.7307 23.9446 17.0297 23.8552 17.2757 23.6092L16.8515 23.185L16.4272 22.7607C16.4271 22.7608 16.4278 22.7601 16.4285 22.7597C16.429 22.7594 16.4266 22.7611 16.4192 22.7641C16.4026 22.771 16.3648 22.783 16.2887 22.7932C16.1224 22.8156 15.8902 22.8168 15.5 22.8168V23.4168ZM15.5 17.0835V17.6835C15.8902 17.6835 16.1224 17.6848 16.2887 17.7071C16.3648 17.7174 16.4026 17.7294 16.4192 17.7362C16.4266 17.7392 16.429 17.741 16.4285 17.7406C16.4278 17.7402 16.4271 17.7396 16.4272 17.7396L16.8515 17.3154L17.2757 16.8911C17.0297 16.6451 16.7307 16.5558 16.4486 16.5178C16.1838 16.4822 15.8562 16.4835 15.5 16.4835V17.0835ZM17.0833 18.6668H17.6833C17.6833 18.3106 17.6846 17.9831 17.649 17.7182C17.6111 17.4361 17.5217 17.1371 17.2757 16.8911L16.8515 17.3154L16.4272 17.7396C16.4273 17.7397 16.4266 17.739 16.4262 17.7383C16.4259 17.7378 16.4276 17.7403 16.4306 17.7477C16.4375 17.7643 16.4495 17.802 16.4597 17.8781C16.4821 18.0444 16.4833 18.2767 16.4833 18.6668H17.0833ZM13.9167 18.6668H14.5167C14.5167 18.2767 14.5179 18.0444 14.5403 17.8781C14.5505 17.802 14.5625 17.7643 14.5694 17.7477C14.5724 17.7403 14.5741 17.7378 14.5738 17.7383C14.5734 17.739 14.5727 17.7397 14.5728 17.7396L14.1485 17.3154L13.7243 16.8911C13.4783 17.1371 13.3889 17.4361 13.351 17.7182C13.3154 17.9831 13.3167 18.3106 13.3167 18.6668H13.9167ZM15.5 17.0835V16.4835C15.1438 16.4835 14.8162 16.4822 14.5514 16.5178C14.2693 16.5558 13.9703 16.6451 13.7243 16.8911L14.1485 17.3154L14.5728 17.7396C14.5729 17.7396 14.5722 17.7402 14.5715 17.7406C14.571 17.741 14.5734 17.7392 14.5809 17.7362C14.5974 17.7294 14.6352 17.7174 14.7113 17.7071C14.8776 17.6848 15.1098 17.6835 15.5 17.6835V17.0835ZM13.9167 21.8335H13.3167C13.3167 22.1897 13.3154 22.5173 13.351 22.7821C13.3889 23.0642 13.4783 23.3632 13.7243 23.6092L14.1485 23.185L14.5728 22.7607C14.5727 22.7606 14.5734 22.7613 14.5738 22.762C14.5741 22.7625 14.5724 22.7601 14.5694 22.7526C14.5625 22.7361 14.5505 22.6983 14.5403 22.6222C14.5179 22.4559 14.5167 22.2237 14.5167 21.8335H13.9167ZM15.5 23.4168V22.8168C15.1098 22.8168 14.8776 22.8156 14.7113 22.7932C14.6352 22.783 14.5974 22.771 14.5809 22.7641C14.5734 22.7611 14.571 22.7594 14.5715 22.7597C14.5722 22.7601 14.5729 22.7608 14.5728 22.7607L14.1485 23.185L13.7243 23.6092C13.9703 23.8552 14.2693 23.9446 14.5514 23.9825C14.8162 24.0181 15.1438 24.0168 15.5 24.0168V23.4168ZM18.1969 14.6998L18.2859 15.2932L21.5133 14.8091L21.4243 14.2157L21.3352 13.6223L18.1079 14.1064L18.1969 14.6998ZM21.0772 9.56266V8.96266H20.25V9.56266V10.1627H21.0772V9.56266ZM23.4167 11.9021H24.0167C24.0167 11.5578 24.017 11.2708 24.0016 11.0357C23.986 10.7956 23.9522 10.568 23.8649 10.3462L23.3066 10.566L22.7483 10.7858C22.771 10.8435 22.7923 10.9318 22.8042 11.1138C22.8164 11.3008 22.8167 11.5421 22.8167 11.9021H23.4167ZM21.0772 9.56266V10.1627C21.4372 10.1627 21.6786 10.163 21.8656 10.1752C22.0475 10.187 22.1358 10.2083 22.1936 10.231L22.4134 9.67273L22.6332 9.11444C22.4113 9.0271 22.1838 8.99335 21.9436 8.97769C21.7085 8.96237 21.4216 8.96266 21.0772 8.96266V9.56266ZM23.3066 10.566L23.8649 10.3462C23.643 9.78249 23.1968 9.33636 22.6332 9.11444L22.4134 9.67273L22.1936 10.231C22.4474 10.331 22.6484 10.5319 22.7483 10.7858L23.3066 10.566ZM21.4243 14.2157L21.5133 14.8091C22.0737 14.725 22.5049 14.6689 22.8578 14.4813L22.5763 13.9515L22.2947 13.4216C22.1683 13.4888 21.9913 13.5239 21.3352 13.6223L21.4243 14.2157ZM23.4167 11.9021H22.8167C22.8167 12.5655 22.8082 12.7458 22.7605 12.8808L23.3263 13.0806L23.892 13.2804C24.0251 12.9036 24.0167 12.4688 24.0167 11.9021H23.4167ZM22.5763 13.9515L22.8578 14.4813C23.3408 14.2247 23.7099 13.7961 23.892 13.2804L23.3263 13.0806L22.7605 12.8808C22.6785 13.113 22.5123 13.3061 22.2947 13.4216L22.5763 13.9515ZM18.1969 14.6998L18.1079 14.1064C17.4801 14.2006 16.9536 14.2785 16.5392 14.395C16.1087 14.516 15.727 14.6971 15.4289 15.0431L15.8836 15.4347L16.3382 15.8262C16.4238 15.7269 16.5555 15.6369 16.8641 15.5502C17.1889 15.4588 17.6273 15.392 18.2859 15.2932L18.1969 14.6998ZM15.5037 17.0835L16.1036 17.0935C16.1177 16.2497 16.1962 15.9911 16.3382 15.8262L15.8836 15.4347L15.4289 15.0431C14.9674 15.579 14.9172 16.2751 14.9038 17.0735L15.5037 17.0835ZM15.5 17.0835V17.6835H15.5037V17.0835V16.4835H15.5V17.0835ZM10.75 9.56266V8.96266H10.3542V9.56266V10.1627H10.75V9.56266Z" fill="#1C274C"/>
</svg>
