<svg width="30" height="30" viewBox="0 0 30 30" fill="none" xmlns="http://www.w3.org/2000/svg">
<rect width="30" height="30" rx="8" fill="#BDC4C0"/>
<path d="M18.17 8H11.83C11.0574 8 10.6711 8 10.3596 8.1084C9.76881 8.31397 9.30499 8.79146 9.1053 9.39964C9 9.72036 9 10.118 9 10.9134V20.2495C9 20.8216 9.65666 21.1252 10.0721 20.7451C10.3161 20.5217 10.6839 20.5217 10.9279 20.7451L11.25 21.0398C11.6777 21.4312 12.3223 21.4312 12.75 21.0398C13.1777 20.6484 13.8223 20.6484 14.25 21.0398C14.6777 21.4312 15.3223 21.4312 15.75 21.0398C16.1777 20.6484 16.8223 20.6484 17.25 21.0398C17.6777 21.4312 18.3223 21.4312 18.75 21.0398L19.0721 20.7451C19.3161 20.5217 19.6839 20.5217 19.9279 20.7451C20.3433 21.1252 21 20.8216 21 20.2495V10.9134C21 10.118 21 9.72036 20.8947 9.39964C20.695 8.79146 20.2312 8.31397 19.6404 8.1084C19.3289 8 18.9426 8 18.17 8Z" stroke="#29390C" stroke-width="1.2"/>
<path d="M13.3333 13.6L14.2857 14.6667L16.6667 12" stroke="#29390C" stroke-width="1.2" stroke-linecap="round" stroke-linejoin="round"/>
<path d="M12 17H18" stroke="#29390C" stroke-width="1.2" stroke-linecap="round"/>
</svg>
