<svg width="30" height="30" viewBox="0 0 30 30" fill="none" xmlns="http://www.w3.org/2000/svg">
<rect width="30" height="30" rx="8" fill="#BDC4C0"/>
<path d="M22.6053 15.6468L22.0141 15.5445L22.0141 15.5445L22.6053 15.6468ZM22.0468 18.8766L21.4556 18.7743L21.4556 18.7743L22.0468 18.8766ZM11.4924 22.2112L10.8946 22.2629L10.8946 22.2629L11.4924 22.2112ZM10.8494 14.7753L11.4472 14.7236L11.4472 14.7236L10.8494 14.7753ZM17.0793 10.1338L17.6714 10.2308L17.6714 10.2308L17.0793 10.1338ZM16.5547 13.3357L17.1468 13.4327L17.1468 13.4327L16.5547 13.3357ZM11.3027 13.6615L10.911 13.207L10.911 13.207L11.3027 13.6615ZM12.4417 12.68L12.8334 13.1345L12.8334 13.1345L12.4417 12.68ZM14.3268 9.78729L13.746 9.63664L13.746 9.63664L14.3268 9.78729ZM14.7034 8.33549L15.2842 8.48615L15.2842 8.48615L14.7034 8.33549ZM16.0285 7.63444L15.845 8.20569L15.845 8.20569L16.0285 7.63444ZM16.1433 7.67131L16.3268 7.10006L16.3268 7.10006L16.1433 7.67131ZM13.8074 11.1164L14.3366 11.3991L14.3366 11.3991L13.8074 11.1164ZM17.0079 8.57112L16.4271 8.72178L16.4271 8.72178L17.0079 8.57112ZM15.2421 7.68831L14.9816 7.14779L14.9816 7.14779L15.2421 7.68831ZM9.14418 22.9978L8.54641 23.0495L8.54641 23.0495L9.14418 22.9978ZM8.375 14.1022L8.97277 14.0506C8.94509 13.7304 8.67014 13.4889 8.34913 13.5028C8.02812 13.5166 7.775 13.7809 7.775 14.1022H8.375ZM22.6053 15.6468L22.0141 15.5445L21.4556 18.7743L22.0468 18.8766L22.638 18.9788L23.1966 15.749L22.6053 15.6468ZM16.4856 23.4168V22.8168H12.8054V23.4168V24.0168H16.4856V23.4168ZM11.4924 22.2112L12.0902 22.1595L11.4472 14.7236L10.8494 14.7753L10.2517 14.827L10.8946 22.2629L11.4924 22.2112ZM22.0468 18.8766L21.4556 18.7743C21.0549 21.0912 18.9656 22.8168 16.4856 22.8168V23.4168V24.0168C19.5176 24.0168 22.1325 21.9019 22.638 18.9788L22.0468 18.8766ZM17.0793 10.1338L16.4872 10.0368L15.9626 13.2387L16.5547 13.3357L17.1468 13.4327L17.6714 10.2308L17.0793 10.1338ZM11.3027 13.6615L11.6944 14.116L12.8334 13.1345L12.4417 12.68L12.05 12.2255L10.911 13.207L11.3027 13.6615ZM14.3268 9.78729L14.9076 9.93795L15.2842 8.48615L14.7034 8.33549L14.1226 8.18484L13.746 9.63664L14.3268 9.78729ZM16.0285 7.63444L15.845 8.20569L15.9598 8.24256L16.1433 7.67131L16.3268 7.10006L16.212 7.0632L16.0285 7.63444ZM13.8074 11.1164L14.3366 11.3991C14.5838 10.9363 14.7757 10.4462 14.9076 9.93795L14.3268 9.78729L13.746 9.63664C13.6382 10.0523 13.481 10.4539 13.2781 10.8337L13.8074 11.1164ZM16.1433 7.67131L15.9598 8.24256C16.2004 8.31986 16.371 8.50562 16.4271 8.72178L17.0079 8.57112L17.5886 8.42046C17.4254 7.7913 16.9439 7.29831 16.3268 7.10006L16.1433 7.67131ZM14.7034 8.33549L15.2842 8.48615C15.3114 8.3811 15.3873 8.28433 15.5025 8.22883L15.2421 7.68831L14.9816 7.14779C14.5589 7.3515 14.2412 7.72755 14.1226 8.18484L14.7034 8.33549ZM15.2421 7.68831L15.5025 8.22883C15.6078 8.17812 15.7317 8.16929 15.845 8.20569L16.0285 7.63444L16.212 7.0632C15.807 6.93307 15.3651 6.96299 14.9816 7.14779L15.2421 7.68831ZM17.205 14.1022V14.7022H21.3067V14.1022V13.5022H17.205V14.1022ZM9.14418 22.9978L9.74195 22.9461L8.97277 14.0506L8.375 14.1022L7.77723 14.1539L8.54641 23.0495L9.14418 22.9978ZM8.375 23.0311H8.975V14.1022H8.375H7.775V23.0311H8.375ZM9.14418 22.9978L8.54641 23.0495C8.53565 22.9251 8.63373 22.8168 8.76031 22.8168V23.4168V24.0168C9.33871 24.0168 9.79168 23.5212 9.74195 22.9461L9.14418 22.9978ZM17.0793 10.1338L17.6714 10.2308C17.7702 9.62818 17.742 9.01154 17.5886 8.42046L17.0079 8.57112L16.4271 8.72178C16.5385 9.15111 16.559 9.59903 16.4872 10.0368L17.0793 10.1338ZM12.8054 23.4168V22.8168C12.4335 22.8168 12.1224 22.5319 12.0902 22.1595L11.4924 22.2112L10.8946 22.2629C10.9804 23.2545 11.8097 24.0168 12.8054 24.0168V23.4168ZM12.4417 12.68L12.8334 13.1345C13.3717 12.6706 13.9526 12.118 14.3366 11.3991L13.8074 11.1164L13.2781 10.8337C13.0045 11.346 12.5686 11.7786 12.05 12.2255L12.4417 12.68ZM22.6053 15.6468L23.1966 15.749C23.3994 14.5763 22.4975 13.5022 21.3067 13.5022V14.1022V14.7022C21.7514 14.7022 22.0903 15.1038 22.0141 15.5445L22.6053 15.6468ZM8.76031 23.4168V22.8168C8.87952 22.8168 8.975 22.9134 8.975 23.0311H8.375H7.775C7.775 23.5749 8.2155 24.0168 8.76031 24.0168V23.4168ZM16.5547 13.3357L15.9626 13.2387C15.8371 14.0048 16.4276 14.7022 17.205 14.7022V14.1022V13.5022C17.1694 13.5022 17.1407 13.4699 17.1468 13.4327L16.5547 13.3357ZM10.8494 14.7753L11.4472 14.7236C11.4273 14.4929 11.5194 14.2668 11.6944 14.116L11.3027 13.6615L10.911 13.207C10.4437 13.6097 10.1985 14.2125 10.2517 14.827L10.8494 14.7753Z" fill="#1C274C"/>
</svg>
