<svg width="30" height="30" viewBox="0 0 30 30" fill="none" xmlns="http://www.w3.org/2000/svg">
<rect width="30" height="30" rx="8" fill="#BDC4C0"/>
<path d="M11.9364 18.0863C12.0247 18.4057 12.3551 18.5931 12.6745 18.5048C12.994 18.4166 13.1813 18.0861 13.0931 17.7667L12.5148 17.9265L11.9364 18.0863ZM10.8109 11.759L11.3892 11.5992L11.3892 11.5992L10.8109 11.759ZM9.72376 10.6867L9.56335 11.2649L9.56335 11.2649L9.72376 10.6867ZM8.53541 9.73434C8.2161 9.64575 7.88543 9.83278 7.79684 10.1521C7.70825 10.4714 7.89528 10.8021 8.21459 10.8907L8.375 10.3125L8.53541 9.73434ZM21.9842 18.4554C22.305 18.3721 22.4974 18.0445 22.414 17.7238C22.3307 17.4031 22.0031 17.2107 21.6824 17.294L21.8333 17.8747L21.9842 18.4554ZM14.6455 19.7427L14.0672 19.9025C14.3113 20.7862 13.7755 21.7188 12.8257 21.9657L12.9766 22.5464L13.1275 23.1271C14.6959 22.7195 15.6545 21.1417 15.2239 19.5829L14.6455 19.7427ZM12.9766 22.5464L12.8257 21.9657C11.8695 22.2142 10.9104 21.6591 10.6642 20.7679L10.0859 20.9277L9.50753 21.0875C9.93607 22.6386 11.5654 23.5331 13.1275 23.1271L12.9766 22.5464ZM10.0859 20.9277L10.6642 20.7679C10.4201 19.8842 10.9559 18.9516 11.9057 18.7047L11.7548 18.124L11.6039 17.5433C10.0355 17.9509 9.0769 19.5287 9.50753 21.0875L10.0859 20.9277ZM11.7548 18.124L11.9057 18.7047C12.8619 18.4562 13.821 19.0112 14.0672 19.9025L14.6455 19.7427L15.2239 19.5829C14.7953 18.0317 13.166 17.1373 11.6039 17.5433L11.7548 18.124ZM12.5148 17.9265L13.0931 17.7667L11.3892 11.5992L10.8109 11.759L10.2326 11.9188L11.9364 18.0863L12.5148 17.9265ZM9.72376 10.6867L9.88417 10.1086L8.53541 9.73434L8.375 10.3125L8.21459 10.8907L9.56335 11.2649L9.72376 10.6867ZM10.8109 11.759L11.3892 11.5992C11.1882 10.8717 10.6121 10.3105 9.88417 10.1086L9.72376 10.6867L9.56335 11.2649C9.89824 11.3578 10.1474 11.6107 10.2326 11.9188L10.8109 11.759ZM14.6455 19.7427L14.7965 20.3234L21.9842 18.4554L21.8333 17.8747L21.6824 17.294L14.4946 19.162L14.6455 19.7427Z" fill="#1C274C"/>
<path d="M13.5726 12.9116C13.1887 11.5218 12.9967 10.8269 13.3226 10.2794C13.6484 9.73199 14.3649 9.54579 15.7979 9.17339L17.3178 8.77839C18.7508 8.40599 19.4673 8.21979 20.0317 8.53586C20.5962 8.85194 20.7881 9.54685 21.1721 10.9367L21.5794 12.4108C21.9633 13.8006 22.1553 14.4955 21.8294 15.043C21.5035 15.5905 20.787 15.7767 19.3541 16.1491L17.8342 16.5441C16.4012 16.9165 15.6847 17.1027 15.1203 16.7866C14.5558 16.4705 14.3638 15.7756 13.9799 14.3858L13.5726 12.9116Z" stroke="#1C274C" stroke-width="1.2"/>
</svg>
