<svg width="12" height="12" viewBox="0 0 12 12" fill="none" xmlns="http://www.w3.org/2000/svg">
<path d="M6 6.54554C6.30111 6.54572 6.54602 6.7895 6.54602 7.09063C6.54602 7.39176 6.30111 7.63554 6 7.63572H2.72743C2.42617 7.63572 2.1823 7.39187 2.1823 7.09063C2.18231 6.78939 2.42617 6.54554 2.72743 6.54554H6Z" fill="#242424"/>
<path d="M6 4.90938C6.30111 4.90956 6.54602 5.15334 6.54602 5.45447C6.54602 5.7556 6.30111 5.99938 6 5.99956H2.72743C2.42617 5.99956 2.1823 5.75571 2.1823 5.45447C2.18231 5.15323 2.42617 4.90938 2.72743 4.90938H6Z" fill="#242424"/>
<path d="M6 3.27233C6.30111 3.27251 6.54602 3.51629 6.54602 3.81742C6.54602 4.11855 6.30111 4.36233 6 4.36251H2.72743C2.42617 4.36251 2.1823 4.11866 2.1823 3.81742C2.18231 3.51618 2.42617 3.27233 2.72743 3.27233H6Z" fill="#242424"/>
<path fill-rule="evenodd" clip-rule="evenodd" d="M8.72743 6.08777e-06C9.22607 5.71851e-06 9.65526 -0.00152209 9.99704 0.0443946C10.3545 0.092453 10.6975 0.200749 10.9754 0.478514C11.2533 0.756397 11.3615 1.09944 11.4096 1.45684C11.4556 1.79869 11.4549 2.22841 11.4549 2.72724V10.9089C11.7561 10.9089 12 11.1528 12 11.454C12 11.7553 11.7561 11.9991 11.4549 11.9991H4.3726C4.36964 11.9992 4.36669 12 4.36372 12C4.3608 12 4.35774 11.9992 4.35484 11.9991H0.545132C0.243868 11.9991 0 11.7553 0 11.454C2.86551e-06 11.1905 0.186582 10.9704 0.43504 10.9196L0.545132 10.9089V4.3634C0.545132 3.86459 0.543564 3.43485 0.589523 3.093C0.637612 2.73564 0.745872 2.39255 1.02368 2.11468C1.30152 1.83686 1.64474 1.72867 2.00207 1.68056C2.34388 1.6346 2.77384 1.63617 3.27257 1.63617H4.9346C4.97225 1.19693 5.07595 0.790908 5.38828 0.478514C5.66617 0.200811 6.00933 0.092467 6.36668 0.0443946C6.70846 -0.00152589 7.13765 5.51824e-06 7.63628 6.08777e-06H8.72743ZM3.27257 2.72635C2.74304 2.72635 2.39991 2.72795 2.14768 2.76186C1.91144 2.79367 1.8367 2.84465 1.79521 2.88615C1.75372 2.92769 1.70268 3.00243 1.67091 3.23859C1.63699 3.49086 1.6354 3.83376 1.6354 4.3634V10.9089H3.81859V9.81786C3.81859 9.51662 4.06246 9.27277 4.36372 9.27277C4.6649 9.27286 4.90885 9.51668 4.90885 9.81786V10.9089H7.09026V4.3634C7.09026 3.83373 7.08956 3.49086 7.05564 3.23859C7.02383 3.00214 6.97197 2.92766 6.93045 2.88615C6.88885 2.84474 6.81423 2.79354 6.57887 2.76186C6.32661 2.72799 5.98346 2.72635 5.45398 2.72635H3.27257ZM7.63628 1.09019C7.10673 1.09019 6.76364 1.09179 6.51139 1.1257C6.27591 1.15744 6.20135 1.20856 6.15981 1.24999C6.10861 1.30124 6.0616 1.38357 6.03196 1.63972C6.29039 1.64384 6.52214 1.65352 6.72359 1.68056C7.08094 1.7286 7.42406 1.83707 7.70198 2.11468C7.9799 2.39257 8.08892 2.73558 8.13702 3.093C8.18299 3.43486 8.18141 3.86457 8.18141 4.3634V10.9089H10.3637V2.72724C10.3637 2.19757 10.3621 1.8547 10.3282 1.60243C10.2964 1.36602 10.2454 1.2915 10.2039 1.24999C10.1623 1.20852 10.0875 1.15743 9.85143 1.1257C9.59922 1.09184 9.25671 1.09019 8.72743 1.09019H7.63628Z" fill="#242424"/>
</svg>
