<svg width="30" height="30" viewBox="0 0 30 30" fill="none" xmlns="http://www.w3.org/2000/svg">
<rect width="30" height="30" rx="3" fill="#BDC4C0"/>
<path d="M10.4889 19.2H19.5111C20.8857 19.2 22 18.0857 22 16.7111V15C22 14.2268 21.3732 13.6 20.6 13.6C19.8268 13.6 19.2 14.2268 19.2 15V15.84C19.2 16.1493 18.9493 16.4 18.64 16.4H11.36C11.0507 16.4 10.8 16.1493 10.8 15.84V15C10.8 14.2268 10.1732 13.6 9.39999 13.6C8.62679 13.6 7.99998 14.2268 7.99998 15V16.7111C7.99998 18.0857 9.1143 19.2 10.4889 19.2Z" stroke="#29390C"/>
<path d="M20.6 13.6C20.6 12.9495 20.6 12.6242 20.5462 12.3537C20.3253 11.243 19.457 10.3747 18.3463 10.1538C18.0758 10.1 17.7505 10.1 17.1 10.1H12.9C12.2495 10.1 11.9242 10.1 11.6537 10.1538C10.543 10.3747 9.67473 11.243 9.4538 12.3537C9.39999 12.6242 9.39999 12.9495 9.39999 13.6" stroke="#29390C"/>
<path d="M15 10.1V16.4" stroke="#29390C"/>
<path d="M20.6 19.9V19.2M9.39999 19.9V19.2" stroke="#29390C" stroke-linecap="round"/>
</svg>
