<svg width="9" height="11" viewBox="0 0 9 11" fill="none" xmlns="http://www.w3.org/2000/svg">
<path fill-rule="evenodd" clip-rule="evenodd" d="M5.91954 0C6.4422 1.06623e-05 6.9322 0.131079 7.30241 0.360324C7.56691 0.524152 7.78651 0.753218 7.89023 1.03078H8.13858C8.39169 1.03078 8.63455 1.1277 8.79897 1.29597C8.9693 1.47035 9.05338 1.72299 8.96347 1.9874C8.63054 2.96503 7.55053 3.65022 6.29126 3.7643V10.3093H7.58382C7.789 10.3093 7.95554 10.464 7.95554 10.6547C7.95554 10.8453 7.789 11 7.58382 11H4.25526C4.05005 11 3.88353 10.8453 3.88353 10.6547C3.88353 10.464 4.05005 10.3093 4.25526 10.3093H5.54782V8.56013C5.54774 8.00834 5.2755 7.48879 4.81244 7.1518L2.93608 5.90602C2.36837 6.41373 1.5483 6.57121 0.82509 6.33601C0.535078 6.24151 0.368328 6.01775 0.32516 5.78167C0.302576 5.65782 0.313903 5.52991 0.353382 5.40861C-0.0973935 4.90815 -0.126687 4.16465 0.321935 3.63096C0.771308 3.0967 1.55182 2.94865 2.17813 3.24142C2.29446 3.17802 2.4248 3.13891 2.55872 3.13055C2.81775 3.11456 3.0884 3.21525 3.25298 3.45567C3.6372 4.01755 3.68715 4.73574 3.37151 5.34568L5.24947 6.59296L5.25592 6.59745L5.26157 6.6012C5.36398 6.67505 5.45924 6.75595 5.54782 6.84166V3.7643C4.28868 3.65012 3.20849 2.96495 2.87561 1.9874C2.78575 1.72303 2.87061 1.47032 3.04091 1.29597C3.2053 1.12783 3.44751 1.03082 3.70049 1.03078H3.94804C4.05175 0.753126 4.27214 0.524191 4.53667 0.360324C4.90685 0.131061 5.39687 3.17667e-05 5.91954 0ZM2.6079 3.81899C2.58192 3.82073 2.53687 3.83701 2.50147 3.87892L1.09602 5.55019C1.06061 5.59251 1.0532 5.63927 1.05812 5.6663C1.05979 5.67543 1.06215 5.68003 1.06296 5.68129C1.06381 5.68185 1.06601 5.68289 1.07022 5.68428C1.58971 5.85336 2.18917 5.7062 2.54985 5.27751C2.55974 5.26575 2.56952 5.25352 2.57888 5.24156C2.91141 4.81585 2.91633 4.25082 2.62564 3.82573C2.62335 3.82242 2.62179 3.82059 2.62081 3.81974C2.61916 3.81934 2.61484 3.81856 2.6079 3.81899ZM1.62982 3.79352C1.36547 3.75289 1.08566 3.84437 0.907336 4.05646C0.729102 4.26871 0.698935 4.54588 0.801706 4.7786L1.62982 3.79352ZM3.70049 1.72147C3.64728 1.7215 3.60798 1.74287 3.59083 1.76042C3.58726 1.76411 3.58467 1.76681 3.58357 1.76866C3.58305 1.76958 3.58293 1.77052 3.58277 1.77091C3.5828 1.7715 3.58289 1.77467 3.58438 1.77915C3.82749 2.49306 4.74073 3.09301 5.91954 3.09309C7.09845 3.09309 8.01155 2.4931 8.25469 1.77915C8.25621 1.77465 8.25628 1.77228 8.25631 1.77166C8.25615 1.7712 8.25604 1.76957 8.2555 1.76866C8.25436 1.76678 8.25182 1.7641 8.24824 1.76042C8.23105 1.74286 8.1918 1.72147 8.13858 1.72147H3.70049ZM5.91954 0.690684C5.52317 0.690716 5.18085 0.7904 4.94871 0.934146C4.89811 0.965482 4.85477 0.998287 4.81727 1.03078H7.0218C6.98435 0.998347 6.94087 0.965426 6.89037 0.934146C6.6582 0.790457 6.31583 0.690694 5.91954 0.690684Z" fill="#242424"/>
</svg>
