<svg width="1300" height="16" viewBox="0 0 1300 16" fill="none" xmlns="http://www.w3.org/2000/svg">
<line x1="4.37114e-08" y1="8.5" x2="1300" y2="8.50011" stroke="#C4B7A3" stroke-dasharray="10 10"/>
<circle cx="1145" cy="8" r="8" fill="white"/>
<path d="M1145 0C1149.42 0 1153 3.58172 1153 8C1153 12.4183 1149.42 16 1145 16C1140.58 16 1137 12.4183 1137 8C1137 3.58172 1140.58 0 1145 0ZM1145 2C1141.69 2 1139 4.68629 1139 8C1139 11.3137 1141.69 14 1145 14C1148.31 14 1151 11.3137 1151 8C1151 4.68629 1148.31 2 1145 2ZM1145 4C1147.21 4 1149 5.79086 1149 8C1149 10.2091 1147.21 12 1145 12C1142.79 12 1141 10.2091 1141 8C1141 5.79086 1142.79 4 1145 4Z" fill="#BF9861"/>
<circle cx="898" cy="8" r="8" fill="white"/>
<path d="M898 0C902.418 0 906 3.58172 906 8C906 12.4183 902.418 16 898 16C893.582 16 890 12.4183 890 8C890 3.58172 893.582 0 898 0ZM898 2C894.686 2 892 4.68629 892 8C892 11.3137 894.686 14 898 14C901.314 14 904 11.3137 904 8C904 4.68629 901.314 2 898 2ZM898 4C900.209 4 902 5.79086 902 8C902 10.2091 900.209 12 898 12C895.791 12 894 10.2091 894 8C894 5.79086 895.791 4 898 4Z" fill="#BF9861"/>
<circle cx="650" cy="8" r="8" fill="white"/>
<path d="M650 0C654.418 0 658 3.58172 658 8C658 12.4183 654.418 16 650 16C645.582 16 642 12.4183 642 8C642 3.58172 645.582 0 650 0ZM650 2C646.686 2 644 4.68629 644 8C644 11.3137 646.686 14 650 14C653.314 14 656 11.3137 656 8C656 4.68629 653.314 2 650 2ZM650 4C652.209 4 654 5.79086 654 8C654 10.2091 652.209 12 650 12C647.791 12 646 10.2091 646 8C646 5.79086 647.791 4 650 4Z" fill="#BF9861"/>
<circle cx="403" cy="8" r="8" fill="white"/>
<path d="M403 0C407.418 0 411 3.58172 411 8C411 12.4183 407.418 16 403 16C398.582 16 395 12.4183 395 8C395 3.58172 398.582 0 403 0ZM403 2C399.686 2 397 4.68629 397 8C397 11.3137 399.686 14 403 14C406.314 14 409 11.3137 409 8C409 4.68629 406.314 2 403 2ZM403 4C405.209 4 407 5.79086 407 8C407 10.2091 405.209 12 403 12C400.791 12 399 10.2091 399 8C399 5.79086 400.791 4 403 4Z" fill="#BF9861"/>
<circle cx="155" cy="8" r="8" fill="white"/>
<path d="M155 0C159.418 0 163 3.58172 163 8C163 12.4183 159.418 16 155 16C150.582 16 147 12.4183 147 8C147 3.58172 150.582 0 155 0ZM155 2C151.686 2 149 4.68629 149 8C149 11.3137 151.686 14 155 14C158.314 14 161 11.3137 161 8C161 4.68629 158.314 2 155 2ZM155 4C157.209 4 159 5.79086 159 8C159 10.2091 157.209 12 155 12C152.791 12 151 10.2091 151 8C151 5.79086 152.791 4 155 4Z" fill="#BF9861"/>
</svg>
