<svg width="22" height="22" viewBox="0 0 22 22" fill="none" xmlns="http://www.w3.org/2000/svg">
<rect width="22" height="22" rx="4" fill="#BDC4C0"/>
<path fill-rule="evenodd" clip-rule="evenodd" d="M11 7.18177C12.35 7.18177 13.4444 8.32139 13.4444 9.72718C13.4444 11.133 12.35 12.2726 11 12.2726C9.64997 12.2726 8.55556 11.133 8.55556 9.72718C8.55556 8.32139 9.64997 7.18177 11 7.18177ZM11 8.45447C10.325 8.45447 9.77778 9.02428 9.77778 9.72718C9.77778 10.4301 10.325 10.9999 11 10.9999C11.675 10.9999 12.2222 10.4301 12.2222 9.72718C12.2222 9.02428 11.675 8.45447 11 8.45447Z" fill="#29390C"/>
<path fill-rule="evenodd" clip-rule="evenodd" d="M11 4C14.0477 4 16.5 6.61565 16.5 9.81832C16.5 11.3517 16.0808 12.9935 15.3414 14.4112C14.6032 15.8266 13.5195 17.0678 12.153 17.733C11.4215 18.089 10.5785 18.089 9.84701 17.733C8.48048 17.0678 7.39676 15.8266 6.65856 14.4112C5.91924 12.9935 5.5 11.3517 5.5 9.81832C5.50002 6.61565 7.95226 4 11 4ZM11 5.27271C8.64764 5.27271 6.72224 7.29715 6.72222 9.81832C6.72222 11.1243 7.08343 12.5587 7.73278 13.8038C8.38338 15.0512 9.29707 16.0598 10.365 16.5796C10.7685 16.7759 11.2315 16.7759 11.635 16.5796C12.7029 16.0598 13.6166 15.0512 14.2672 13.8038C14.9166 12.5587 15.2778 11.1243 15.2778 9.81832C15.2778 7.29715 13.3524 5.27271 11 5.27271Z" fill="#29390C"/>
</svg>
