<svg width="12" height="10" viewBox="0 0 12 10" fill="none" xmlns="http://www.w3.org/2000/svg">
<path fill-rule="evenodd" clip-rule="evenodd" d="M7.72742 0.0147139C8.31905 -0.053338 8.89239 0.124776 9.64614 0.340941L10.3394 0.540411C10.6199 0.620855 10.8816 0.695424 11.0909 0.779186C11.3151 0.868914 11.5379 0.990714 11.7099 1.19581C11.8819 1.40116 11.9468 1.62203 11.9749 1.83353C12.001 2.0308 12 2.26801 12 2.52234V6.68566C12 7.04901 12.0014 7.3705 11.9669 7.62602C11.9315 7.88752 11.8485 8.17415 11.598 8.41015C11.4553 8.54453 11.2819 8.65254 11.0886 8.72655C10.7489 8.85657 10.4061 8.83251 10.1064 8.77863C9.81367 8.72599 9.45981 8.62431 9.0591 8.50939C8.37838 8.31417 8.18881 8.26837 8.01066 8.27357C7.9353 8.27578 7.86019 8.2842 7.78681 8.29911C7.61328 8.33441 7.4441 8.42133 6.84686 8.76389L6.02455 9.23554C5.36331 9.61481 4.86437 9.91709 4.27258 9.98528C3.68093 10.0534 3.10763 9.87522 2.35386 9.65905L1.66061 9.45958C1.3803 9.37919 1.11834 9.30547 0.909114 9.22179C0.684924 9.13206 0.462086 9.00929 0.290099 8.80418C0.118074 8.59883 0.0532008 8.37795 0.0251335 8.16646C-0.0010327 7.96918 6.87708e-06 7.73198 7.4572e-06 7.47765V3.31531C7.4572e-06 2.95195 -0.00136499 2.63053 0.0331282 2.37495C0.0684909 2.11329 0.151244 1.826 0.402025 1.58984C0.544775 1.45543 0.718045 1.34745 0.911399 1.27344C1.25111 1.14342 1.59389 1.16748 1.8936 1.22136C2.18632 1.274 2.5402 1.37568 2.9409 1.4906C3.62175 1.68586 3.81116 1.73164 3.98934 1.72642C4.06474 1.72421 4.13977 1.71581 4.21319 1.70088C4.38672 1.66558 4.5559 1.57866 5.15314 1.2361L5.97544 0.764447C6.6367 0.385171 7.13563 0.0829011 7.72742 0.0147139ZM1.43448 2.28455C1.40306 2.29657 1.3743 2.31479 1.3511 2.33663C1.36821 2.32052 1.33419 2.33205 1.31113 2.50269C1.28729 2.67933 1.28601 2.92448 1.28601 3.31531V7.47765C1.28601 7.75719 1.28724 7.92061 1.30314 8.04069C1.31034 8.09492 1.31901 8.1247 1.32484 8.13993C1.32929 8.15152 1.33283 8.15663 1.33283 8.15663C1.33283 8.15663 1.33683 8.16071 1.34882 8.16843C1.36371 8.17798 1.3938 8.19442 1.45161 8.21756C1.57902 8.26854 1.75866 8.32166 2.0672 8.41015L2.76045 8.60864C3.12634 8.71357 3.38191 8.7821 3.57134 8.82678V2.79944C3.25772 2.75058 2.9277 2.65383 2.53431 2.54101C2.10345 2.41744 1.83322 2.34061 1.63092 2.3042C1.43552 2.26907 1.41134 2.2934 1.43448 2.28455ZM6.68925 1.68515L5.8658 2.15681C5.48571 2.37482 5.17459 2.55725 4.85733 2.67563V8.57031C4.98313 8.50082 5.13226 8.41721 5.31075 8.31483L6.13305 7.84318C6.51343 7.62501 6.8249 7.44174 7.14266 7.32338V1.42869C7.01676 1.49824 6.86798 1.58264 6.68925 1.68515ZM8.42866 7.19957C8.74234 7.24841 9.07219 7.34613 9.46568 7.45898C9.8966 7.58256 10.1668 7.65938 10.3691 7.69579C10.5645 7.73093 10.5887 7.70657 10.5655 7.71544C10.5969 7.70342 10.6246 7.6852 10.6478 7.66336C10.6557 7.64882 10.6745 7.60376 10.6889 7.4973C10.7127 7.32074 10.714 7.07612 10.714 6.68566V2.52234C10.714 2.24279 10.7128 2.07937 10.6969 1.9593C10.6897 1.90498 10.681 1.87528 10.6752 1.86006C10.6704 1.84763 10.666 1.84335 10.666 1.84335C10.666 1.84335 10.6622 1.83868 10.6512 1.83156C10.6363 1.82201 10.6062 1.80557 10.5484 1.78243C10.421 1.73145 10.2413 1.67832 9.9328 1.58984L9.23955 1.39135C8.87347 1.28637 8.61812 1.2169 8.42866 1.17223V7.19957Z" fill="#242424"/>
</svg>
