<svg width="30" height="30" viewBox="0 0 30 30" fill="none" xmlns="http://www.w3.org/2000/svg">
<rect width="30" height="30" rx="4" fill="#BDC4C0"/>
<path d="M17.625 12.375L21.125 8.875M21.125 8.875V11.5M21.125 8.875H18.5" stroke="#29390C" stroke-width="1.2" stroke-linecap="round" stroke-linejoin="round"/>
<path d="M13.2829 9.15165L13.8508 10.1692C14.3633 11.0875 14.1575 12.2922 13.3504 13.0993C13.3504 13.0993 12.3713 14.0784 14.1464 15.8535C15.9216 17.6287 16.9007 16.6496 16.9007 16.6496C17.7078 15.8425 18.9125 15.6367 19.8308 16.1492L20.8484 16.7171C22.235 17.491 22.3988 19.4356 21.1799 20.6544C20.4475 21.3868 19.5504 21.9567 18.5585 21.9943C16.8889 22.0576 14.0535 21.635 11.2092 18.7908C8.36499 15.9465 7.94244 13.1111 8.00573 11.4415C8.04333 10.4497 8.6132 9.55246 9.34558 8.82008C10.5644 7.60125 12.509 7.76501 13.2829 9.15165Z" stroke="#29390C" stroke-width="1.2" stroke-linecap="round"/>
</svg>
