<svg width="16" height="19" viewBox="0 0 16 19" fill="none" xmlns="http://www.w3.org/2000/svg">
<path d="M1.66058 4.67928L1.36018 5.19866L1.66058 4.67928ZM1.19473 4.2126L0.674884 4.5122L0.674884 4.5122L1.19473 4.2126ZM11.0355 4.2126L11.5554 4.5122V4.5122L11.0355 4.2126ZM10.5697 4.67928L10.8701 5.19866L10.5697 4.67928ZM10.5697 0.770915L10.8701 0.251532L10.5697 0.770915ZM11.0355 1.2376L11.5554 0.937999L11.0355 1.2376ZM1.66058 0.770915L1.36018 0.251532L1.66058 0.770915ZM1.19473 1.2376L0.674884 0.937999L1.19473 1.2376ZM7.56358 17.3511L7.13894 16.9273L7.56358 17.3511ZM7.56358 11.0491L7.13894 11.4729L7.56358 11.0491ZM4.66667 11.0491L4.24203 10.6252L4.66667 11.0491ZM4.66667 17.3511L5.09131 16.9273L4.66667 17.3511ZM9.00561 8.24075L8.91645 7.64741L9.00561 8.24075ZM12.4646 7.72098L12.3754 7.12764L12.4646 7.72098ZM14.482 3.80233L15.0404 3.58287V3.58286L14.482 3.80233ZM13.5247 2.84328L13.3045 3.40143L13.5247 2.84328ZM13.6993 7.43732L13.4173 6.90768L13.6993 7.43732ZM14.5031 6.50223L15.069 6.70174L15.069 6.70173L14.5031 6.50223ZM6.52624 9.02977L6.07125 8.63864V8.63864L6.52624 9.02977ZM6.11912 10.8001V11.4001H6.70919L6.71903 10.8101L6.11912 10.8001ZM0.599976 2.1251C0.268605 2.1251 -2.44379e-05 2.39373 -2.44379e-05 2.7251C-2.44379e-05 3.05647 0.268605 3.3251 0.599976 3.3251V2.7251V2.1251ZM3.14543 0.600098V1.2001H9.08482V0.600098V9.76324e-05H3.14543V0.600098ZM9.08482 4.8501V4.2501H3.14543V4.8501V5.4501H9.08482V4.8501ZM3.14543 4.8501V4.2501C2.73786 4.2501 2.47238 4.24952 2.27063 4.2312C2.07718 4.21364 2.00203 4.18364 1.96098 4.1599L1.66058 4.67928L1.36018 5.19866C1.61447 5.34574 1.88524 5.40115 2.16213 5.42629C2.43072 5.45067 2.75999 5.4501 3.14543 5.4501V4.8501ZM1.02422 2.7251H0.424218C0.424218 3.11129 0.423645 3.44097 0.447973 3.70987C0.473043 3.98697 0.528274 4.25781 0.674884 4.5122L1.19473 4.2126L1.71458 3.913C1.69067 3.87152 1.66065 3.79582 1.64309 3.60175C1.62479 3.39946 1.62422 3.13333 1.62422 2.7251H1.02422ZM1.66058 4.67928L1.96098 4.1599C1.85876 4.10077 1.77374 4.01566 1.71458 3.913L1.19473 4.2126L0.674884 4.5122C0.839131 4.79719 1.07544 5.03398 1.36018 5.19866L1.66058 4.67928ZM11.206 2.7251H10.606C10.606 3.13333 10.6055 3.39946 10.5872 3.60174C10.5696 3.79582 10.5396 3.87152 10.5157 3.913L11.0355 4.2126L11.5554 4.5122C11.702 4.25781 11.7572 3.98697 11.7823 3.70987C11.8066 3.44097 11.806 3.11129 11.806 2.7251H11.206ZM9.08482 4.8501V5.4501C9.47027 5.4501 9.79953 5.45067 10.0681 5.42629C10.345 5.40115 10.6158 5.34574 10.8701 5.19866L10.5697 4.67928L10.2693 4.1599C10.2282 4.18364 10.1531 4.21364 9.95962 4.2312C9.75788 4.24952 9.49239 4.2501 9.08482 4.2501V4.8501ZM11.0355 4.2126L10.5157 3.913C10.4565 4.01566 10.3715 4.10077 10.2693 4.1599L10.5697 4.67928L10.8701 5.19866C11.1548 5.03398 11.3911 4.79719 11.5554 4.5122L11.0355 4.2126ZM9.08482 0.600098V1.2001C9.49239 1.2001 9.75788 1.20067 9.95962 1.21899C10.1531 1.23656 10.2282 1.26656 10.2693 1.2903L10.5697 0.770915L10.8701 0.251532C10.6158 0.104455 10.345 0.0490475 10.0681 0.0239078C9.79953 -0.000479221 9.47027 9.76324e-05 9.08482 9.76324e-05V0.600098ZM11.206 2.7251H11.806C11.806 2.33891 11.8066 2.00922 11.7823 1.74033C11.7572 1.46322 11.702 1.19239 11.5554 0.937999L11.0355 1.2376L10.5157 1.5372C10.5396 1.57867 10.5696 1.65438 10.5872 1.84845C10.6055 2.05073 10.606 2.31686 10.606 2.7251H11.206ZM10.5697 0.770915L10.2693 1.2903C10.3715 1.34942 10.4565 1.43454 10.5157 1.5372L11.0355 1.2376L11.5554 0.937999C11.3911 0.653009 11.1548 0.416218 10.8701 0.251532L10.5697 0.770915ZM3.14543 0.600098V9.76324e-05C2.75999 9.76324e-05 2.43072 -0.000479221 2.16213 0.0239078C1.88524 0.0490475 1.61447 0.104455 1.36018 0.251532L1.66058 0.770915L1.96098 1.2903C2.00203 1.26656 2.07718 1.23656 2.27063 1.21899C2.47238 1.20067 2.73786 1.2001 3.14543 1.2001V0.600098ZM1.02422 2.7251H1.62422C1.62422 2.31686 1.62479 2.05073 1.64309 1.84845C1.66065 1.65438 1.69067 1.57867 1.71458 1.5372L1.19473 1.2376L0.674884 0.937999C0.528274 1.19239 0.473043 1.46322 0.447973 1.74033C0.423645 2.00922 0.424218 2.33891 0.424218 2.7251H1.02422ZM1.66058 0.770915L1.36018 0.251532C1.07544 0.416218 0.839131 0.653008 0.674884 0.937999L1.19473 1.2376L1.71458 1.5372C1.77374 1.43454 1.85876 1.34942 1.96098 1.2903L1.66058 0.770915ZM4.41816 15.9001H5.01816V12.5001H4.41816H3.81816V15.9001H4.41816ZM7.8121 12.5001H7.2121V15.9001H7.8121H8.4121V12.5001H7.8121ZM7.8121 15.9001H7.2121C7.2121 16.3177 7.21083 16.5707 7.18636 16.753C7.17508 16.8371 7.16148 16.8816 7.15224 16.9041C7.14496 16.9219 7.14076 16.9254 7.13894 16.9273L7.56358 17.3511L7.98822 17.775C8.24235 17.5204 8.33573 17.2104 8.3757 16.9126C8.41337 16.6319 8.4121 16.2839 8.4121 15.9001H7.8121ZM6.11513 17.6001V18.2001C6.49812 18.2001 6.84582 18.2014 7.12624 18.1636C7.42402 18.1235 7.73395 18.0298 7.98822 17.775L7.56358 17.3511L7.13894 16.9273C7.13713 16.9291 7.13369 16.9332 7.11628 16.9403C7.09408 16.9495 7.04985 16.9631 6.96606 16.9743C6.78436 16.9988 6.5321 17.0001 6.11513 17.0001V17.6001ZM6.11513 10.8001V11.4001C6.5321 11.4001 6.78436 11.4014 6.96606 11.4258C7.04985 11.4371 7.09407 11.4507 7.11628 11.4599C7.13369 11.467 7.13713 11.4711 7.13894 11.4729L7.56358 11.0491L7.98822 10.6252C7.73395 10.3704 7.42402 10.2767 7.12624 10.2366C6.84582 10.1988 6.49812 10.2001 6.11513 10.2001V10.8001ZM7.8121 12.5001H8.4121C8.4121 12.1163 8.41337 11.7683 8.3757 11.4876C8.33573 11.1898 8.24235 10.8798 7.98822 10.6252L7.56358 11.0491L7.13894 11.4729C7.14076 11.4748 7.14496 11.4783 7.15224 11.4961C7.16148 11.5186 7.17508 11.5631 7.18636 11.6472C7.21083 11.8295 7.2121 12.0825 7.2121 12.5001H7.8121ZM4.41816 12.5001H5.01816C5.01816 12.0825 5.01943 11.8295 5.04389 11.6472C5.05518 11.5631 5.06878 11.5186 5.07802 11.4961C5.08529 11.4783 5.08949 11.4748 5.09132 11.4729L4.66667 11.0491L4.24203 10.6252C3.9879 10.8798 3.89452 11.1898 3.85455 11.4876C3.81689 11.7683 3.81816 12.1163 3.81816 12.5001H4.41816ZM6.11513 10.8001V10.2001C5.73214 10.2001 5.38443 10.1988 5.10402 10.2366C4.80624 10.2767 4.49631 10.3704 4.24203 10.6252L4.66667 11.0491L5.09132 11.4729C5.09312 11.4711 5.09656 11.467 5.11397 11.4599C5.13618 11.4507 5.18041 11.4371 5.2642 11.4258C5.44589 11.4014 5.69816 11.4001 6.11513 11.4001V10.8001ZM4.41816 15.9001H3.81816C3.81816 16.2839 3.81689 16.6319 3.85455 16.9126C3.89452 17.2104 3.9879 17.5204 4.24203 17.775L4.66667 17.3511L5.09131 16.9273C5.08949 16.9254 5.08529 16.9219 5.07802 16.9041C5.06878 16.8816 5.05518 16.8371 5.04389 16.753C5.01943 16.5707 5.01816 16.3177 5.01816 15.9001H4.41816ZM6.11513 17.6001V17.0001C5.69816 17.0001 5.44589 16.9988 5.2642 16.9743C5.18041 16.9631 5.13618 16.9495 5.11397 16.9403C5.09656 16.9332 5.09312 16.9291 5.09131 16.9273L4.66667 17.3511L4.24203 17.775C4.49631 18.0298 4.80624 18.1235 5.10402 18.1636C5.38443 18.2014 5.73214 18.2001 6.11513 18.2001V17.6001ZM9.00561 8.24075L9.09477 8.83409L12.5537 8.31432L12.4646 7.72098L12.3754 7.12764L8.91645 7.64741L9.00561 8.24075ZM12.0926 2.7251V2.1251H11.206V2.7251V3.3251H12.0926V2.7251ZM14.6 5.23694H15.2C15.2 4.86661 15.2003 4.56022 15.184 4.30962C15.1673 4.05398 15.1316 3.8149 15.0404 3.58287L14.482 3.80233L13.9236 4.02179C13.9504 4.08993 13.9736 4.19 13.9865 4.38755C13.9997 4.59014 14 4.85097 14 5.23694H14.6ZM12.0926 2.7251V3.3251C12.4779 3.3251 12.7382 3.3254 12.9403 3.33859C13.1373 3.35146 13.2369 3.37475 13.3045 3.40143L13.5247 2.84328L13.7448 2.28512C13.5128 2.19363 13.2738 2.15782 13.0185 2.14115C12.7682 2.1248 12.4622 2.1251 12.0926 2.1251V2.7251ZM14.482 3.80233L15.0404 3.58286C14.8071 2.98927 14.338 2.51908 13.7448 2.28512L13.5247 2.84328L13.3045 3.40143C13.5875 3.51305 13.8119 3.73761 13.9236 4.02179L14.482 3.80233ZM12.4646 7.72098L12.5537 8.31432C13.1578 8.22355 13.6109 8.16404 13.9812 7.96696L13.6993 7.43732L13.4173 6.90768C13.2738 6.98405 13.0751 7.02249 12.3754 7.12764L12.4646 7.72098ZM14.6 5.23694H14C14 5.94556 13.9915 6.14874 13.9372 6.30273L14.5031 6.50223L15.069 6.70173C15.2084 6.30621 15.2 5.84902 15.2 5.23694H14.6ZM13.6993 7.43732L13.9812 7.96696C14.4894 7.69643 14.8775 7.24482 15.069 6.70174L14.5031 6.50223L13.9372 6.30273C13.8456 6.56276 13.6599 6.77855 13.4173 6.90768L13.6993 7.43732ZM9.00561 8.24075L8.91645 7.64741C8.24244 7.74869 7.68127 7.8319 7.24034 7.9561C6.78309 8.0849 6.38295 8.27604 6.07125 8.63864L6.52624 9.02977L6.98122 9.4209C7.08063 9.30527 7.23075 9.2055 7.5657 9.11115C7.91697 9.0122 8.38993 8.94 9.09477 8.83409L9.00561 8.24075ZM6.11912 10.8001L6.71903 10.8101C6.73412 9.9057 6.81717 9.61174 6.98122 9.4209L6.52624 9.02977L6.07125 8.63864C5.58844 9.20026 5.53353 9.93128 5.5192 10.7901L6.11912 10.8001ZM6.11513 10.8001V11.4001H6.11912V10.8001V10.2001H6.11513V10.8001ZM1.02422 2.7251V2.1251H0.599976V2.7251V3.3251H1.02422V2.7251Z" fill="#29390C"/>
</svg>
