<svg width="35" height="35" viewBox="0 0 35 35" fill="none" xmlns="http://www.w3.org/2000/svg">
<rect x="0.5" y="0.5" width="34" height="34" rx="17" stroke="#BDC4C0"/>
<path d="M18.0508 10.0156C19.8348 10.1308 21.5177 10.883 22.79 12.1348C24.0623 13.3865 24.8389 15.0537 24.9775 16.8301C25.1161 18.6066 24.6078 20.3739 23.5449 21.8066C22.4821 23.2393 20.9361 24.2422 19.1914 24.6309C17.4466 25.0195 15.6187 24.7674 14.0449 23.9219L10 25L11.0771 21.002C10.2085 19.4445 9.93248 17.6267 10.2998 15.8828C10.6672 14.1391 11.6536 12.5856 13.0771 11.5078C14.5008 10.4302 16.2668 9.90049 18.0508 10.0156ZM19.8691 11.9053C18.6468 11.3958 17.2892 11.3031 16.0088 11.6426C14.7282 11.9822 13.5959 12.7346 12.7891 13.7822C11.9823 14.8298 11.546 16.114 11.5479 17.4346C11.5468 18.5296 11.8508 19.604 12.4258 20.5371L12.582 20.7949L11.9805 23.0264L14.2402 22.4258L14.4902 22.5742C15.6301 23.2476 16.9619 23.5257 18.2773 23.3662C19.5926 23.2067 20.8181 22.6184 21.7627 21.6924C22.7074 20.7662 23.3184 19.5543 23.5 18.2461C23.6816 16.9381 23.4242 15.6068 22.7676 14.46C22.1108 13.3131 21.0914 12.4148 19.8691 11.9053ZM15.0576 14.0693C15.2191 14.0447 15.3842 14.0671 15.5332 14.1338C15.8226 14.3775 16.0363 14.6989 16.1484 15.0596C16.2933 15.3167 16.3614 15.6099 16.3438 15.9043C16.2642 16.1713 16.1185 16.4144 15.9199 16.6104C15.8633 16.6586 15.8276 16.7269 15.8203 16.8008C15.8132 16.8748 15.8344 16.9496 15.8809 17.0078C16.426 17.9412 17.2723 18.6637 18.2812 19.0576C18.3374 19.0882 18.4034 19.097 18.4658 19.083C18.5281 19.069 18.5836 19.033 18.6211 18.9814C18.7991 18.7659 18.9774 18.3349 19.2529 18.2207C19.4362 18.1779 19.627 18.1771 19.8105 18.2188C19.9942 18.2605 20.1658 18.344 20.3125 18.4619C20.6008 18.631 21.0721 18.8377 21.1484 19.1885C21.1802 19.3599 21.1571 19.5369 21.084 19.6953C20.9595 19.9575 20.7726 20.1852 20.5391 20.3584C20.3054 20.5316 20.0321 20.645 19.7441 20.6885C19.2389 20.7456 18.7277 20.6653 18.2646 20.4561C17.8188 20.3039 17.3916 20.101 16.9922 19.8516C16.1964 19.3608 15.5031 18.7207 14.9521 17.9668C14.7828 17.7375 14.6263 17.499 14.4824 17.2529C14.2829 16.9315 14.1307 16.5828 14.0322 16.2178C13.9935 16.0658 13.9743 15.9088 13.9736 15.752C13.964 15.4729 14.0167 15.1953 14.1289 14.9395C14.2412 14.6835 14.4099 14.4559 14.6221 14.2734C14.7443 14.165 14.8959 14.0941 15.0576 14.0693Z" fill="#BDC4C0"/>
<path d="M18.0508 10.0156C19.8348 10.1308 21.5177 10.883 22.79 12.1348C24.0623 13.3865 24.8389 15.0537 24.9775 16.8301C25.1161 18.6066 24.6078 20.3739 23.5449 21.8066C22.4821 23.2393 20.9361 24.2422 19.1914 24.6309C17.4466 25.0195 15.6187 24.7674 14.0449 23.9219L10 25L11.0771 21.002C10.2085 19.4445 9.93248 17.6267 10.2998 15.8828C10.6672 14.1391 11.6536 12.5856 13.0771 11.5078C14.5008 10.4302 16.2668 9.90049 18.0508 10.0156ZM19.8691 11.9053C18.6468 11.3958 17.2892 11.3031 16.0088 11.6426C14.7282 11.9822 13.5959 12.7346 12.7891 13.7822C11.9823 14.8298 11.546 16.114 11.5479 17.4346C11.5468 18.5296 11.8508 19.604 12.4258 20.5371L12.582 20.7949L11.9805 23.0264L14.2402 22.4258L14.4902 22.5742C15.6301 23.2476 16.9619 23.5257 18.2773 23.3662C19.5926 23.2067 20.8181 22.6184 21.7627 21.6924C22.7074 20.7662 23.3184 19.5543 23.5 18.2461C23.6816 16.9381 23.4242 15.6068 22.7676 14.46C22.1108 13.3131 21.0914 12.4148 19.8691 11.9053ZM15.0576 14.0693C15.2191 14.0447 15.3842 14.0671 15.5332 14.1338C15.8226 14.3775 16.0363 14.6989 16.1484 15.0596C16.2933 15.3167 16.3614 15.6099 16.3438 15.9043C16.2642 16.1713 16.1185 16.4144 15.9199 16.6104C15.8633 16.6586 15.8276 16.7269 15.8203 16.8008C15.8132 16.8748 15.8344 16.9496 15.8809 17.0078C16.426 17.9412 17.2723 18.6637 18.2812 19.0576C18.3374 19.0882 18.4034 19.097 18.4658 19.083C18.5281 19.069 18.5836 19.033 18.6211 18.9814C18.7991 18.7659 18.9774 18.3349 19.2529 18.2207C19.4362 18.1779 19.627 18.1771 19.8105 18.2188C19.9942 18.2605 20.1658 18.344 20.3125 18.4619C20.6008 18.631 21.0721 18.8377 21.1484 19.1885C21.1802 19.3599 21.1571 19.5369 21.084 19.6953C20.9595 19.9575 20.7726 20.1852 20.5391 20.3584C20.3054 20.5316 20.0321 20.645 19.7441 20.6885C19.2389 20.7456 18.7277 20.6653 18.2646 20.4561C17.8188 20.3039 17.3916 20.101 16.9922 19.8516C16.1964 19.3608 15.5031 18.7207 14.9521 17.9668C14.7828 17.7375 14.6263 17.499 14.4824 17.2529C14.2829 16.9315 14.1307 16.5828 14.0322 16.2178C13.9935 16.0658 13.9743 15.9088 13.9736 15.752C13.964 15.4729 14.0167 15.1953 14.1289 14.9395C14.2412 14.6835 14.4099 14.4559 14.6221 14.2734C14.7443 14.165 14.8959 14.0941 15.0576 14.0693Z" stroke="#BDC4C0"/>
</svg>
