<svg width="30" height="30" viewBox="0 0 30 30" fill="none" xmlns="http://www.w3.org/2000/svg">
<path d="M15.5286 7.81465C17.2413 7.9252 18.8569 8.6481 20.0784 9.8498C21.2996 11.0514 22.0458 12.6515 22.179 14.3566C22.312 16.062 21.8232 17.7586 20.803 19.134C19.7826 20.5095 18.2983 21.4718 16.6233 21.8449C14.9483 22.218 13.1946 21.9768 11.6838 21.1652L7.80005 22.2004L8.83423 18.3615C8.00039 16.8664 7.73551 15.1215 8.08813 13.4475C8.44082 11.7735 9.38754 10.2829 10.7542 9.24824C12.1209 8.21362 13.8159 7.70416 15.5286 7.81465ZM17.2747 9.6291C16.1012 9.14003 14.7978 9.0513 13.5686 9.37715C12.3393 9.70313 11.2523 10.4252 10.4778 11.4309C9.70323 12.4366 9.28351 13.6698 9.2854 14.9377C9.28441 15.9887 9.57638 17.0196 10.1282 17.9152L10.2795 18.1633L9.70142 20.3049L11.8704 19.7297L12.1106 19.8713C13.2049 20.5177 14.4836 20.7851 15.7463 20.632C17.009 20.4789 18.1852 19.9136 19.092 19.0246C19.9989 18.1355 20.5856 16.9719 20.76 15.716C20.9343 14.4603 20.6873 13.1822 20.0569 12.0812C19.4264 10.9803 18.448 10.1183 17.2747 9.6291ZM12.6545 11.7062C12.8098 11.6825 12.9693 11.7046 13.1125 11.7687C13.3901 12.0026 13.5948 12.3105 13.7024 12.6564C13.8415 12.9033 13.9068 13.1853 13.8899 13.468C13.8135 13.7243 13.6733 13.9576 13.4827 14.1457C13.4283 14.1921 13.3938 14.2582 13.387 14.3293C13.3802 14.4003 13.402 14.4717 13.4465 14.5275C13.9699 15.4235 14.7817 16.1172 15.7502 16.4953C15.8041 16.5247 15.8671 16.5332 15.927 16.5197C15.9869 16.5063 16.0404 16.4717 16.0764 16.4221C16.2473 16.2151 16.4184 15.8012 16.6829 15.6916C16.8588 15.6505 17.0418 15.6506 17.218 15.6906C17.3944 15.7307 17.5596 15.8099 17.7004 15.923C17.9773 16.0853 18.4289 16.2846 18.5022 16.6213C18.5326 16.7858 18.5109 16.9556 18.4407 17.1076C18.3211 17.3594 18.1415 17.5781 17.9172 17.7443C17.6929 17.9106 17.4309 18.019 17.1545 18.0607C16.6695 18.1156 16.1783 18.0389 15.7336 17.8381C15.3058 17.6921 14.8962 17.4973 14.5129 17.258C13.749 16.7869 13.0839 16.1721 12.5549 15.4484C12.3922 15.2282 12.241 14.9992 12.1028 14.7629C11.9112 14.4543 11.7657 14.1192 11.6711 13.7687C11.6339 13.6229 11.6151 13.4729 11.6145 13.3225C11.6052 13.0545 11.6562 12.7879 11.7639 12.5422C11.8716 12.2966 12.033 12.0777 12.2366 11.9025C12.3538 11.7985 12.4994 11.7301 12.6545 11.7062Z" fill="#8AD9AD"/>
<path d="M15.5286 7.81465C17.2413 7.9252 18.8569 8.6481 20.0784 9.8498C21.2996 11.0514 22.0458 12.6515 22.179 14.3566C22.312 16.062 21.8232 17.7586 20.803 19.134C19.7826 20.5095 18.2983 21.4718 16.6233 21.8449C14.9483 22.218 13.1946 21.9768 11.6838 21.1652L7.80005 22.2004L8.83423 18.3615C8.00039 16.8664 7.73551 15.1215 8.08813 13.4475C8.44082 11.7735 9.38754 10.2829 10.7542 9.24824C12.1209 8.21362 13.8159 7.70416 15.5286 7.81465ZM17.2747 9.6291C16.1012 9.14003 14.7978 9.0513 13.5686 9.37715C12.3393 9.70313 11.2523 10.4252 10.4778 11.4309C9.70323 12.4366 9.28351 13.6698 9.2854 14.9377C9.28441 15.9887 9.57638 17.0196 10.1282 17.9152L10.2795 18.1633L9.70142 20.3049L11.8704 19.7297L12.1106 19.8713C13.2049 20.5177 14.4836 20.7851 15.7463 20.632C17.009 20.4789 18.1852 19.9136 19.092 19.0246C19.9989 18.1355 20.5856 16.9719 20.76 15.716C20.9343 14.4603 20.6873 13.1822 20.0569 12.0812C19.4264 10.9803 18.448 10.1183 17.2747 9.6291ZM12.6545 11.7062C12.8098 11.6825 12.9693 11.7046 13.1125 11.7687C13.3901 12.0026 13.5948 12.3105 13.7024 12.6564C13.8415 12.9033 13.9068 13.1853 13.8899 13.468C13.8135 13.7243 13.6733 13.9576 13.4827 14.1457C13.4283 14.1921 13.3938 14.2582 13.387 14.3293C13.3802 14.4003 13.402 14.4717 13.4465 14.5275C13.9699 15.4235 14.7817 16.1172 15.7502 16.4953C15.8041 16.5247 15.8671 16.5332 15.927 16.5197C15.9869 16.5063 16.0404 16.4717 16.0764 16.4221C16.2473 16.2151 16.4184 15.8012 16.6829 15.6916C16.8588 15.6505 17.0418 15.6506 17.218 15.6906C17.3944 15.7307 17.5596 15.8099 17.7004 15.923C17.9773 16.0853 18.4289 16.2846 18.5022 16.6213C18.5326 16.7858 18.5109 16.9556 18.4407 17.1076C18.3211 17.3594 18.1415 17.5781 17.9172 17.7443C17.6929 17.9106 17.4309 18.019 17.1545 18.0607C16.6695 18.1156 16.1783 18.0389 15.7336 17.8381C15.3058 17.6921 14.8962 17.4973 14.5129 17.258C13.749 16.7869 13.0839 16.1721 12.5549 15.4484C12.3922 15.2282 12.241 14.9992 12.1028 14.7629C11.9112 14.4543 11.7657 14.1192 11.6711 13.7687C11.6339 13.6229 11.6151 13.4729 11.6145 13.3225C11.6052 13.0545 11.6562 12.7879 11.7639 12.5422C11.8716 12.2966 12.033 12.0777 12.2366 11.9025C12.3538 11.7985 12.4994 11.7301 12.6545 11.7062Z" stroke="#8AD9AD"/>
<rect x="0.5" y="0.5" width="29" height="29" rx="14.5" stroke="#8AD9AD"/>
</svg>
