<svg width="35" height="35" viewBox="0 0 35 35" fill="none" xmlns="http://www.w3.org/2000/svg">
<rect x="0.5" y="0.5" width="34" height="34" rx="17" stroke="#BDC4C0"/>
<path d="M24.625 13.6696C24.4375 12.9821 23.9688 12.4911 23.3125 12.2946C22.1875 12 17.4062 12 17.4062 12C17.4062 12 12.7188 12 11.5 12.2946C10.8438 12.4911 10.375 12.9821 10.1875 13.6696C10 14.9464 10 17.5 10 17.5C10 17.5 10 20.0536 10.2813 21.3304C10.4688 22.0179 10.9375 22.5089 11.5937 22.7054C12.7187 23 17.5 23 17.5 23C17.5 23 22.1875 23 23.4062 22.7054C24.0625 22.5089 24.5313 22.0179 24.7188 21.3304C25 20.0536 25 17.5 25 17.5C25 17.5 25 14.9464 24.625 13.6696ZM16 19.8571V15.1429L19.9375 17.5L16 19.8571Z" fill="#BDC4C0"/>
</svg>
