<svg width="140" height="35" viewBox="0 0 140 35" fill="none" xmlns="http://www.w3.org/2000/svg">
<path d="M134.751 29.8225H129.494V21.7006C129.494 19.764 129.459 17.2708 126.76 17.2708C124.061 17.2708 123.603 19.3808 123.603 21.5595V29.822H118.346V13.1202H123.393V15.4025H123.464C124.493 13.6665 126.407 12.63 128.443 12.7046C133.771 12.7046 134.753 16.1621 134.753 20.6601L134.751 29.8225H134.751ZM112.415 10.8374C110.73 10.8374 109.364 9.49049 109.364 7.82852C109.364 6.16655 110.729 4.81848 112.414 4.81848C114.098 4.81848 115.465 6.1654 115.465 7.82736C115.465 9.48933 114.1 10.8374 112.415 10.8374ZM115.044 29.8225H109.781V13.1202H115.044V29.8225ZM137.371 0.00195834H107.14C105.711 -0.0142278 104.539 1.11533 104.522 2.52468V32.4742C104.539 33.8847 105.71 35.0148 107.14 34.9998H137.371C138.804 35.0177 139.98 33.8876 140 32.4742V2.52294C139.979 1.11071 138.803 -0.0182743 137.371 0.000224113M90.2142 17.1517C87.5856 17.1517 86.0088 18.8831 86.0088 21.4058C86.0088 23.9285 87.585 25.6616 90.2142 25.6616C92.8433 25.6616 94.4236 23.9331 94.4236 21.4058C94.4236 18.8784 92.8462 17.1517 90.2142 17.1517ZM99.2629 29.8127H94.4236V27.5975H94.3521C93.1216 29.2306 91.1886 30.2035 89.1261 30.2272C84.0752 30.2272 80.7482 26.631 80.7482 21.5451C80.7482 16.8742 83.6926 12.5855 88.5325 12.5855C90.7081 12.5855 92.7402 13.1728 93.932 14.8007H94.0011V5.17342H99.2629V29.8127ZM73.9982 19.5224C74.0392 17.8055 72.6616 16.3811 70.9214 16.3407C70.871 16.3395 70.8206 16.3395 70.7708 16.3407C68.86 16.2233 67.2065 17.6396 67.0559 19.5224H73.9982ZM78.4513 26.9235C76.6824 29.0398 74.0433 30.2596 71.263 30.2463C66.0065 30.2463 61.7977 26.7848 61.7977 21.4237C61.7977 16.0626 66.0059 12.6028 71.263 12.6028C76.1761 12.6028 79.2576 16.0603 79.2576 21.4237V23.0498H67.0565C67.3706 24.9569 69.0604 26.3437 71.0181 26.3015C72.5386 26.2922 73.9501 25.524 74.7693 24.2603L78.4513 26.9229V26.9235ZM26.1928 13.1162H31.2407V15.3984H31.3122C32.3394 13.6619 34.2531 12.6248 36.2898 12.7005C41.6207 12.7005 42.6016 16.1609 42.6016 20.656V29.815H37.3451V21.6948C37.3451 19.7565 37.3088 17.265 34.607 17.265C31.9052 17.265 31.4528 19.3756 31.4528 21.5538V29.8127H26.1963L26.1922 13.1162H26.1928ZM45.2676 5.17515H50.5241V19.9045L56.482 13.1069H62.9268L56.0273 20.8393L62.7815 29.8231H56.1744L50.5939 21.5676H50.5247V29.8225H45.2682L45.267 5.17573L45.2676 5.17515ZM18.0213 13.1144H23.2778V29.8162H18.0213V13.1144ZM20.6498 4.81097C22.3338 4.81097 23.6991 6.15846 23.6985 7.81985C23.6985 9.48124 22.3326 10.8282 20.6486 10.8276C18.9646 10.8276 17.6 9.48066 17.6 7.81927C17.6 6.15788 18.9652 4.81097 20.6492 4.81097M0 5.1792H5.47212V24.8436H15.6025V29.8254H0V5.1792Z" fill="#B6B6B6"/>
</svg>
