<svg width="140" height="33" viewBox="0 0 140 33" fill="none" xmlns="http://www.w3.org/2000/svg">
<path d="M42.7752 13.2775C44.3774 13.2775 45.6765 12.024 45.6765 10.4774C45.6765 8.93079 44.378 7.6772 42.7752 7.6772C41.1724 7.6772 39.8738 8.93079 39.8738 10.4774C39.8738 12.024 41.1724 13.2775 42.7752 13.2775ZM138.522 22.8452C138.081 22.5457 137.74 22.496 137.457 23.0776C132.584 33.2615 124.373 28.1796 125.189 28.6266C127.01 27.8228 131.801 24.1155 131.077 18.9968C130.637 15.8685 127.854 14.4809 124.901 14.9776C119.745 15.8447 117.849 21.2105 118.814 25.961C118.983 26.7768 119.285 27.4498 119.587 28.1087C113.761 32.6804 111.447 24.0166 111.185 22.9808C111.174 22.9257 115.683 19.299 116.937 10.6579C118.252 1.60115 115.257 -0.0481454 112.196 0.0032091C106.53 0.0983501 104.999 11.5207 107.056 21.0407C106.883 21.084 106.082 21.5126 104.794 21.5608C103.867 18.746 99.9059 16.2794 98.8695 17.2297C96.2751 19.6077 99.4986 24.2571 101.767 24.6215C100.404 32.7193 91.883 30.7138 93.4696 20.5683C96.2443 15.5961 98.3546 8.20264 97.9782 3.73912C97.8448 2.15902 96.6342 0.0415898 93.8959 0.147002C88.6293 0.348095 88.0568 11.7737 88.6741 19.8828C88.6433 19.6833 88.3503 20.8683 86.1924 21.457C85.682 18.7227 81.1191 15.9783 80.0451 17.2978C78.0345 19.7677 81.5191 24.1707 83.1694 24.4782C81.807 32.576 73.2861 30.5705 74.8721 20.425C77.6469 15.4528 79.7572 8.05938 79.3807 3.5964C79.2474 2.01577 78.0368 -0.101122 75.2984 0.00374968C70.0319 0.204843 69.4593 11.6304 70.0767 19.7401C70.0459 19.5374 69.7456 20.7613 67.4997 21.3407C67.4246 17.7935 62.8454 16.1664 61.7452 17.2983C59.7844 19.3158 62.1939 23.456 64.423 24.4788C63.0605 32.5766 54.5397 30.571 56.1257 20.4256C58.9004 15.4534 61.0107 8.05992 60.6343 3.59695C60.5009 2.01631 59.2903 -0.100581 56.552 0.00429025C51.2854 0.205384 50.8619 12.2056 51.4792 20.3147C49.7448 27.4865 43.927 36.4428 44.6827 18.5017C44.7572 17.2432 44.839 16.7653 44.1886 16.2939C43.7012 15.928 42.5931 16.1042 41.9875 16.1183C41.2514 16.1469 41.0671 16.5621 40.9041 17.1908C40.5248 18.813 40.457 20.3856 40.4027 22.5311C40.3674 23.5349 40.2839 24.0031 39.8834 25.3718C39.4834 26.74 37.201 29.2412 35.9512 28.8228C34.2173 28.2477 34.7865 23.5252 35.1114 20.2807C35.382 17.7167 34.5154 16.5653 32.2947 16.1464C30.9944 15.8847 30.2045 15.9247 28.8505 15.5134C27.5698 15.1241 27.2802 12.7867 24.5492 13.5657C23.0556 13.9922 24.0158 17.0459 23.6567 19.3098C21.8915 30.4446 18.2193 30.7505 16.5151 25.3415C24.1884 7.20528 18.7347 0.0561854 15.542 0.0561854C12.3494 0.0561854 8.4161 2.26605 10.0256 16.4064C9.24298 16.1858 9.00265 16.0674 8.14552 16.0674C3.30078 16.0674 0 19.8471 0 24.5091C0 29.171 3.30134 32.9512 8.14608 32.9512C11.006 32.9512 13.0143 31.696 14.5353 29.7542C15.5275 31.1257 16.7358 32.9723 18.9453 32.889C25.5318 32.6414 27.4472 19.605 27.6735 18.8779C28.3777 18.9828 29.0438 19.1806 29.6942 19.2855C30.7776 19.4423 30.8561 19.8563 30.8314 20.9077C30.544 29.7742 32.2398 32.8788 36.0862 32.8788C38.229 32.8788 40.1394 30.8473 41.4548 29.3942C42.4374 31.3516 44.0037 32.8188 46.1045 32.8782C51.1952 33.0004 53.1442 25.1713 52.9666 26.2016C52.8271 27.0103 54.6181 32.8344 59.8589 32.8555C66.3507 32.882 67.5574 25.9935 67.7014 24.8393C67.7193 24.6096 67.7271 24.6334 67.7014 24.8393L67.6963 24.9091C69.7574 24.5393 70.8206 23.4728 70.8206 23.4728C70.8206 23.4728 72.4755 32.962 78.6054 32.8555C84.9711 32.7442 86.1716 26.5173 86.3291 25.3032C86.3498 25.015 86.3621 25.0485 86.3291 25.3032C86.3279 25.315 86.3274 25.3269 86.3268 25.3388C88.7749 24.4793 89.4186 23.6171 89.4186 23.6171C89.4186 23.6171 90.734 32.9177 97.2034 32.9993C102.969 33.0723 105.105 27.3752 105.118 24.9907C106.09 25.001 107.888 24.4339 107.846 24.402C107.846 24.402 109.958 32.5339 115.855 32.9517C118.624 33.148 120.701 31.4484 121.885 30.6732C124.667 32.8474 133.933 35.6249 139.783 26.0535C140.609 24.6799 138.833 23.0571 138.521 22.8452H138.522ZM7.91247 29.7937C5.08563 29.7937 3.27277 27.2714 3.27277 24.5523C3.27277 21.8332 4.93661 19.3109 7.76345 19.3109C9.0357 19.3109 9.74325 19.446 10.7337 20.2774C10.9135 20.9607 11.4228 22.5365 11.6704 23.2517C12.0026 24.209 12.397 25.0242 12.7953 25.9113C12.2267 28.1866 10.3617 29.7937 7.91247 29.7937ZM14.8009 20.3569C14.6832 20.1763 14.7079 20.2872 14.5762 20.1163C14.058 18.7563 13.0597 15.7204 12.9438 12.2721C12.8132 8.37129 13.4866 3.79912 15.4731 3.79912C16.8188 3.79912 18.2495 13.0656 14.8003 20.3569H14.8009ZM54.603 16.2923C54.2842 13.9776 54.2674 3.65857 56.8349 3.94237C58.2522 4.49646 55.9363 14.2338 54.603 16.2923ZM73.3494 16.2923C73.0307 13.9776 73.0139 3.65857 75.5813 3.94237C76.9987 4.49646 74.6828 14.2338 73.3494 16.2923ZM91.9474 16.4361C91.6281 14.1208 91.6119 3.80182 94.1788 4.08616C95.5961 4.64025 93.2802 14.3782 91.9474 16.4361ZM112.479 3.33855C114.827 3.10394 114.73 12.9943 110.018 19.239C109.41 16.9821 108.479 4.11373 112.479 3.33855ZM122.345 24.6215C121.591 20.9467 123.539 18.5335 125.547 18.2687C126.249 18.1605 127.266 18.5995 127.469 19.4195C127.802 20.9656 127.421 23.2587 122.926 26.1681C122.933 26.1929 122.513 25.4399 122.345 24.6215H122.345Z" fill="#B4B4B4"/>
</svg>
