<svg width="140" height="56" viewBox="0 0 140 56" fill="none" xmlns="http://www.w3.org/2000/svg">
<path d="M18.1029 12.0171C8.2279 12.0171 0 16.1319 0 28.542C0 38.3742 5.53279 44.565 18.3577 44.565C33.4531 44.565 34.4207 34.8014 34.4207 34.8014H27.1058C27.1058 34.8014 25.5376 40.0585 17.9103 40.0585C11.698 40.0585 7.22994 35.9377 7.22994 30.1638H35.1851V26.5389C35.1851 20.8261 31.492 12.0171 18.1014 12.0171H18.1029ZM17.8481 16.6487C23.7616 16.6487 27.7929 20.2051 27.7929 25.5367H7.39526C7.39526 19.8774 12.6566 16.6487 17.8481 16.6487Z" fill="#B6B0B0"/>
<path d="M35.1803 0V38.3323C35.1803 40.5081 35.0226 43.5626 35.0226 43.5626H41.9992C41.9992 43.5626 42.2495 41.3689 42.2495 39.3628C42.2495 39.3628 45.6969 44.6587 55.0683 44.6587C64.9373 44.6587 71.6409 37.9302 71.6409 28.2916C71.6409 19.3233 65.4833 12.1122 55.0835 12.1122C45.345 12.1122 42.3193 17.2755 42.3193 17.2755V0H35.1803ZM53.2832 16.8526C59.9854 16.8526 64.2472 21.7374 64.2472 28.2916C64.2472 35.3195 59.3256 39.9183 53.3318 39.9183C46.1792 39.9183 42.3193 34.4349 42.3193 28.3542C42.3193 22.689 45.7818 16.8526 53.2832 16.8526Z" fill="#878787"/>
<path d="M88.9795 12.0171C74.1238 12.0171 73.1714 20.0055 73.1714 21.2803H80.5651C80.5651 21.2803 80.9534 16.6174 88.4684 16.6174C93.3536 16.6174 97.1377 18.8126 97.1377 23.0332V24.5359H88.4684C76.96 24.5359 70.8751 27.8421 70.8751 34.5497C70.8751 41.2574 76.4959 44.7438 84.0944 44.7438C94.4471 44.7438 97.7823 39.1262 97.7823 39.1262C97.7823 41.3601 97.9582 43.5628 97.9582 43.5628H104.531C104.531 43.5628 104.277 40.8329 104.277 39.0875V23.9953C104.277 14.1006 96.1473 12.0171 88.978 12.0171H88.9795ZM97.1392 29.0424V31.0455C97.1392 33.6576 95.4982 40.1523 85.8325 40.1523C80.5408 40.1523 78.2719 37.5595 78.2719 34.5512C78.2719 29.0781 85.9128 29.0439 97.1392 29.0439V29.0424Z" fill="#8B8A87"/>
<path d="M100.297 13.271H108.616L120.553 36.7568L132.465 13.271H140L118.304 55.0822H110.401L116.662 43.4272L100.298 13.271H100.297Z" fill="#BDBDBD"/>
</svg>
