<svg width="140" height="44" viewBox="0 0 140 44" fill="none" xmlns="http://www.w3.org/2000/svg">
<path d="M21.7806 0C9.75171 0 0 9.84972 0 21.9995C0 34.1494 9.75171 44 21.7806 44C33.8095 44 43.5612 34.1509 43.5612 21.9995C43.5612 9.84822 33.8106 0.00105083 21.7803 0.00105083L21.7806 0ZM31.7691 31.7298C31.3779 32.3778 30.5421 32.5809 29.9024 32.1861C24.7877 29.0287 18.35 28.3155 10.7684 30.0648C10.0378 30.234 9.30956 29.7713 9.1431 29.0336C8.9759 28.2957 9.43173 27.5601 10.1641 27.392C18.461 25.476 25.5778 26.3006 31.3188 29.844C31.9586 30.2407 32.1614 31.084 31.7686 31.7302L31.7689 31.7298H31.7691ZM34.4349 25.7404C33.9422 26.5477 32.8973 26.8009 32.099 26.3051C26.2457 22.6709 17.3203 21.6181 10.3954 23.7414C9.49727 24.0153 8.54876 23.5042 8.27619 22.5987C8.0057 21.6915 8.51205 20.7353 9.40869 20.4595C17.3188 18.0352 27.1523 19.2096 33.8755 23.3826C34.6741 23.879 34.9263 24.9353 34.4346 25.7406L34.4349 25.7404ZM34.6638 19.5026C27.6429 15.2912 16.0622 14.9039 9.35994 16.9586C8.28377 17.2882 7.14562 16.6745 6.81939 15.5875C6.49317 14.4999 7.10029 13.3511 8.17736 13.0207C15.8711 10.6616 28.6609 11.1173 36.7429 15.9634C37.711 16.5438 38.0285 17.8066 37.4548 18.7831C36.8826 19.761 35.629 20.0833 34.6641 19.5026H34.6638ZM59.2578 20.3097C55.4973 19.4039 54.8277 18.7681 54.8277 17.4322C54.8277 16.1702 56.0041 15.3208 57.7535 15.3208C59.5029 15.3208 61.1308 15.9657 62.8936 17.2935C62.947 17.3337 63.0138 17.3496 63.0795 17.3391C63.1454 17.3291 63.2036 17.2926 63.2421 17.2378L65.0783 14.6233C65.1538 14.5155 65.1332 14.3672 65.0315 14.285C62.9334 12.5844 60.5708 11.7577 57.8091 11.7577C53.7486 11.7577 50.9123 14.2191 50.9123 17.7405C50.9123 21.5169 53.3589 22.8542 57.5869 23.8862C61.1855 24.7234 61.7928 25.425 61.7928 26.6787C61.7928 28.0682 60.5645 28.932 58.5882 28.932C56.393 28.932 54.6025 28.1852 52.5996 26.4331C52.5499 26.3898 52.4817 26.3701 52.4188 26.3738C52.3526 26.3794 52.2919 26.4103 52.2497 26.4615L50.1908 28.9365C50.1045 29.0392 50.1155 29.1926 50.2154 29.2815C52.5458 31.3829 55.4119 32.4928 58.5049 32.4928C62.8804 32.4928 65.7078 30.078 65.7078 26.3405C65.7155 23.1853 63.8455 21.4384 59.2654 20.313L59.2576 20.3095L59.2578 20.3097ZM75.6071 16.5635C73.7105 16.5635 72.1549 17.318 70.8721 18.864V17.1239C70.8721 16.9865 70.7618 16.8745 70.626 16.8745H67.2586C67.1227 16.8745 67.0125 16.9865 67.0125 17.1239V36.4596C67.0125 36.5969 67.1225 36.7089 67.2586 36.7089H70.626C70.7617 36.7089 70.8721 36.5971 70.8721 36.4596V30.356C72.1552 31.8104 73.7109 32.521 75.6071 32.521C79.131 32.521 82.6984 29.7811 82.6984 24.5432C82.7036 19.304 79.1352 16.5632 75.6109 16.5632L75.6071 16.5635ZM78.7827 24.5432C78.7827 27.2105 77.1562 29.0718 74.8269 29.0718C72.4977 29.0718 70.7875 27.1259 70.7875 24.5432C70.7875 21.9604 72.5245 20.0147 74.8269 20.0147C77.1184 20.0144 78.783 21.9185 78.783 24.543L78.7827 24.5433V24.5432ZM91.8417 16.5635C87.3033 16.5635 83.748 20.0932 83.748 24.6002C83.748 29.1072 87.279 32.5508 91.7861 32.5508C96.2932 32.5508 99.9068 29.0329 99.9068 24.5432C99.9068 20.0534 96.3644 16.5639 91.8415 16.5639L91.8418 16.5635H91.8417ZM91.8417 29.0982C89.4278 29.0982 87.6079 27.1392 87.6079 24.5418C87.6079 21.9445 89.3647 20.0407 91.7859 20.0407C94.2072 20.0407 96.0475 21.9997 96.0475 24.5988C96.0475 27.198 94.2789 29.0982 91.8418 29.0982H91.8415H91.8417ZM109.598 16.8745H105.892V13.0478C105.892 12.9106 105.783 12.7988 105.647 12.7988H102.28C102.143 12.7988 102.033 12.9108 102.033 13.0478V16.8745H100.414C100.278 16.8745 100.169 16.9863 100.169 17.1239V20.047C100.169 20.1842 100.278 20.2963 100.414 20.2963H102.033V27.8599C102.033 30.9164 103.539 32.4661 106.51 32.4661C107.717 32.4661 108.72 32.2142 109.664 31.6733C109.741 31.6299 109.788 31.5465 109.788 31.4576V28.674C109.788 28.5881 109.744 28.5069 109.671 28.462C109.598 28.4155 109.506 28.4132 109.431 28.4507C108.783 28.7804 108.156 28.9325 107.455 28.9325C106.374 28.9325 105.892 28.4371 105.892 27.3265V20.2975H109.598C109.734 20.2975 109.843 20.1855 109.843 20.0482V17.1252C109.848 16.9878 109.739 16.8759 109.601 16.8759L109.598 16.8742L109.598 16.8745ZM122.509 16.8895V16.4195C122.509 15.0369 123.034 14.4202 124.211 14.4202C124.913 14.4202 125.477 14.561 126.108 14.7738C126.186 14.7985 126.267 14.7861 126.33 14.7391C126.395 14.6921 126.432 14.6166 126.432 14.5367V11.6707C126.432 11.5611 126.362 11.4642 126.258 11.4318C125.59 11.2314 124.737 11.0257 123.459 11.0257C120.349 11.0257 118.705 12.7947 118.705 16.1398V16.8596H117.087C116.951 16.8596 116.84 16.9716 116.84 17.1087V20.0468C116.84 20.184 116.951 20.2962 117.087 20.2962H118.705V31.9628C118.705 32.1001 118.814 32.2121 118.95 32.2121H122.317C122.453 32.2121 122.564 32.1001 122.564 31.9628V20.2971H125.708L130.524 31.9607C129.978 33.1862 129.44 33.43 128.706 33.43C128.113 33.43 127.488 33.2511 126.849 32.898C126.789 32.8647 126.718 32.8591 126.653 32.8794C126.589 32.9022 126.535 32.9505 126.508 33.0136L125.366 35.5426C125.312 35.6621 125.359 35.8025 125.473 35.8645C126.664 36.5163 127.74 36.7945 129.069 36.7945C131.555 36.7945 132.93 35.6246 134.141 32.4774L139.983 17.2298C140.012 17.1531 140.004 17.0664 139.957 16.9984C139.911 16.9308 139.836 16.8901 139.754 16.8901H136.249C136.144 16.8901 136.05 16.9577 136.016 17.0572L132.425 27.4178L128.491 17.0503C128.455 16.9539 128.363 16.89 128.261 16.89H122.508L122.509 16.8892L122.509 16.8895ZM115.023 16.8745H111.656C111.52 16.8745 111.409 16.9863 111.409 17.1239V31.9629C111.409 32.1003 111.52 32.2123 111.656 32.2123H115.023C115.159 32.2123 115.27 32.1003 115.27 31.9629V17.1249C115.271 16.9875 115.161 16.8759 115.025 16.8756C115.024 16.8756 115.024 16.8756 115.023 16.8756L115.024 16.8745H115.023ZM113.359 10.118C112.025 10.118 110.942 11.2087 110.942 12.5562C110.942 13.9037 112.025 14.9965 113.359 14.9965C114.693 14.9965 115.774 13.9044 115.774 12.5562C115.774 11.208 114.692 10.118 113.36 10.118H113.359Z" fill="#989898"/>
</svg>
