<svg width="140" height="47" viewBox="0 0 140 47" fill="none" xmlns="http://www.w3.org/2000/svg">
<path d="M133.86 8.51067H127.72V0H114.237L108.036 8.51067H97.0176L93.3335 12.1579V8.51067H84.7368V0H57.7192V8.51067H19.7105L13.5088 0H0V29.1792L17.1929 46.2H34.3857V41.3371L39.2978 46.2H72.456V41.3371L77.3681 46.2H93.333V41.3371L98.245 46.2H128.947L140 35.2579V14.5893L133.859 8.51012L133.86 8.51067ZM20.8775 20.6685H12.2808V23.1H20.8775V32.8264H7.36869L2.4566 27.9635V2.43146H12.2813V10.9421H20.878V20.6685H20.8775ZM57.7198 32.8264H28.2456L23.3335 27.9635V10.9421H33.1582V23.1H35.6143V10.9421H45.439V23.1H47.8951V10.9421H57.7198V32.8264ZM70.0006 32.8264H60.1758V10.9421H70.0006V32.8264ZM70.0006 8.51067H60.1758V2.43146H70.0006V8.51067ZM90.878 20.6685H82.2813V23.1H90.878V32.8264H77.3692L72.4572 27.9635V2.43146H82.2819V10.9421H90.8786V20.6685H90.878ZM112.984 20.6685H103.159V23.1H112.984V32.8264H98.2467L93.3346 27.9635V15.8056L98.2467 10.9427H112.984V20.6691V20.6685ZM137.545 32.8264H127.72V20.6685H125.264V32.8264H115.44V2.43146H125.264V10.9421H132.633L137.545 15.8051V32.8258V32.8264Z" fill="#B7B7B7"/>
</svg>
