<svg width="140" height="35" viewBox="0 0 140 35" fill="none" xmlns="http://www.w3.org/2000/svg">
<path d="M32.1451 12.3376C33.6645 12.3376 35.1216 11.0877 35.3755 9.54591C35.6753 8.0451 34.6453 6.79572 33.1276 6.79572C31.6099 6.79572 30.1517 8.04566 29.8939 9.54591C29.5974 11.0877 30.5849 12.3376 32.1451 12.3376ZM135.234 16.798H138.631C139.097 16.798 139.37 16.6113 139.475 16.1816C139.637 15.5165 139.805 14.8525 139.977 14.1896C140.077 13.803 139.849 13.51 139.416 13.51H136.062C136.304 12.5603 137.244 9.47724 137.244 7.46749C137.244 3.45352 133.795 0.0387662 128.901 0.0387662C123.373 0.0387662 119.777 3.70439 119.777 8.86252C119.777 10.3672 120.345 12.1205 121.049 13.2088C120.746 13.1916 120.442 13.1833 120.139 13.1833C115.939 13.1833 113.293 15.4345 113.293 18.7108C113.293 21.7855 115.746 22.9801 118.055 23.7753C120.106 24.482 121.995 24.8104 121.995 26.3943C121.995 27.462 120.956 28.0884 118.922 28.0884C116.509 28.0884 115.182 26.9652 114.845 26.5394C115.073 26.3616 115.414 25.939 115.414 25.2352C115.414 24.2499 114.714 23.4458 113.413 23.4458C112.312 23.4458 111.382 24.3325 111.149 25.4993C109.381 26.9281 107.452 27.8541 104.716 27.8541C101.981 27.8541 100.624 26.4696 100.624 23.5234C101.256 23.7133 102.9 23.9415 103.987 23.9415C108.549 23.9415 111.658 21.8935 111.658 17.792C111.658 15.5868 109.698 13.2708 105.822 13.2708H105.813C100.715 13.2708 97.8595 16.4618 96.6125 19.9718C96.2633 19.8887 95.9131 19.8079 95.5628 19.7298C95.8419 18.9512 96.042 18.049 96.042 17.0488C96.042 15.3154 94.9553 13.2708 92.0483 13.2708C90.0234 13.2708 88.1022 14.5816 86.7712 16.546C87.1024 15.2645 87.3221 14.4111 87.3361 14.354C87.423 14.019 87.2817 13.6457 86.7527 13.6457H83.7689C83.3435 13.6457 83.0437 13.7941 82.9226 14.2726C82.8414 14.5916 81.8163 18.5668 80.8182 22.4368C80.1894 24.8503 76.9377 27.8541 72.8499 27.8541C70.1553 27.8541 68.7587 26.3782 68.7587 23.4309C69.4637 23.7083 71.0346 23.9409 72.1207 23.9409C76.8677 23.9409 79.7909 21.893 79.7909 17.7915C79.7909 15.5862 77.8316 13.2702 73.955 13.2702H73.9466C68.2061 13.2702 64.6893 17.6763 64.0936 22.6722C63.8458 24.7489 62.072 27.6005 60.1492 27.6005C59.2121 27.6005 58.6898 27.019 58.6898 26.0321C58.6898 25.1798 59.2973 23.0953 59.9631 20.4824C60.1862 19.6085 60.5247 18.2755 60.9002 16.798H64.0213C64.4859 16.798 64.7582 16.6113 64.8636 16.1816C65.0132 15.5635 65.2873 14.4847 65.3646 14.1896C65.465 13.803 65.2385 13.51 64.8036 13.51H61.7347C61.7347 13.51 63.1475 7.93933 63.1812 7.79589C63.3173 7.22935 62.8376 6.90261 62.3355 7.00672C62.3355 7.00672 59.9631 7.46582 59.5232 7.55609C59.081 7.6447 58.738 7.8845 58.5777 8.51417L57.3212 13.5095H54.8569C54.3923 13.5095 54.1194 13.6967 54.0152 14.1253C53.8515 14.7904 53.6845 15.4544 53.5141 16.1179C53.4121 16.5044 53.6397 16.7974 54.074 16.7974H56.4906C56.4733 16.8655 55.6175 20.0826 54.9259 22.9629C54.6003 24.348 53.5091 27.5894 51.7219 27.5894C50.6542 27.5894 50.2036 27.0572 50.2036 25.9163C50.2036 24.1192 51.9937 19.6201 51.9937 17.5788C51.9937 14.8519 50.513 13.2719 47.4799 13.2719C45.5682 13.2719 43.5859 14.4919 42.7453 15.5624C42.7453 15.5624 43.0003 14.6858 43.0872 14.349C43.1802 13.993 42.9868 13.6435 42.5144 13.6435H39.5491C38.918 13.6435 38.7438 13.9769 38.6507 14.3435C38.6137 14.4908 37.545 18.6371 36.5194 22.6173C35.8177 25.3432 34.1128 27.6204 32.2903 27.6204C31.3532 27.6204 30.9357 27.0395 30.9357 26.052C30.9357 25.1992 31.4933 23.0942 32.1586 20.4824C32.9684 17.3019 33.6824 14.683 33.7586 14.3773C33.8584 13.9852 33.6807 13.6435 33.1696 13.6435H30.1864C29.6461 13.6435 29.4528 13.9237 29.339 14.3131C29.339 14.3131 28.4995 17.4542 27.6101 20.9504C26.9644 23.4879 26.251 26.0725 26.251 27.287C26.251 29.454 27.2357 31.0878 29.9432 31.0878C32.0325 31.0878 33.6863 30.0405 34.949 28.7064C34.7635 29.4286 34.6453 29.8854 34.6329 29.932C34.5242 30.3446 34.6559 30.7095 35.148 30.7095H38.2007C38.732 30.7095 38.9365 30.4985 39.0475 30.0405C39.1546 29.6036 41.4344 20.741 41.4344 20.741C42.0369 18.3602 43.5277 16.7841 45.6248 16.7841C46.619 16.7841 47.4799 17.4348 47.3801 18.6992C47.2692 20.0903 45.5716 25.0878 45.5716 27.2809C45.5716 28.9412 46.1948 31.0889 49.3574 31.0889C51.5128 31.0889 53.1 30.0676 54.2539 28.7496C54.6765 30.1485 55.7957 31.0889 57.8491 31.0889C61.2617 31.0889 63.3185 29.0891 64.5268 27.0799C65.5294 29.4136 67.8782 31.0878 71.3221 31.0878C74.766 31.0878 77.5491 29.6257 79.4743 27.6376L78.874 29.9646C78.7647 30.3839 78.9497 30.7134 79.4474 30.7134H82.4687C82.8823 30.7134 83.1771 30.5057 83.2841 30.076C83.3374 29.865 83.774 28.198 84.3904 25.8288C85.5696 21.2954 87.465 16.592 90.3132 16.592C91.3175 16.592 91.7294 17.1469 91.7294 18.0208C91.7294 18.4328 91.6083 18.7889 91.5035 18.98C90.1232 18.7091 89.0124 19.3826 89.0124 20.8391C89.0124 21.7883 90.0229 22.6506 91.387 22.6506C92.4288 22.6506 93.2908 22.398 93.9779 21.9411C94.6543 22.079 95.3291 22.2241 96.0022 22.3759C95.8985 23.0332 95.8458 23.6973 95.8436 24.3629C95.8436 28.0014 98.4726 31.0872 103.186 31.0872C106.879 31.0872 109.414 29.752 111.601 28.0407C112.652 29.7409 115.308 31.1149 118.791 31.1149C123.566 31.1149 126.274 28.6615 126.274 25.419C126.274 22.4839 123.835 21.4039 121.321 20.5046C119.277 19.7747 117.572 19.3781 117.572 17.9504C117.572 16.7802 118.504 16.2453 120.102 16.2453C121.138 16.2453 121.917 16.4657 122.332 16.5809C122.744 17.6004 123.597 18.7291 125.053 18.7291C126.285 18.7291 126.838 17.766 126.838 16.8794C126.838 14.3551 122.583 14.091 122.583 8.67755C122.583 5.31153 124.511 2.53476 128.503 2.53476C131.276 2.53476 133.088 4.27259 133.088 7.07816C133.088 9.39084 131.668 13.5084 131.668 13.5084H129.255C128.792 13.5084 128.518 13.6956 128.413 14.1242C128.25 14.7893 128.082 15.4533 127.911 16.1168C127.809 16.5033 128.037 16.7963 128.472 16.7963H130.828C130.828 16.7963 128.392 25.6721 128.392 27.2859C128.392 29.4529 129.628 31.0861 132.337 31.0861C136.167 31.0861 138.561 28.6261 139.602 25.0491C139.683 24.7722 139.524 24.5473 139.241 24.5473H137.779C137.487 24.5473 137.318 24.7118 137.244 24.9937C136.914 26.2636 136.096 27.5993 134.485 27.5993C133.548 27.5993 133.026 27.0179 133.026 26.031C133.026 25.1781 133.597 23.1817 134.3 20.4813C134.635 19.1954 135.231 16.7963 135.231 16.7963L135.234 16.798ZM105.029 16.6462C106.383 16.6462 107.027 17.5367 107.027 18.5978C107.027 20.3927 105.618 21.4876 103.414 21.4876C102.625 21.4876 101.523 21.3032 100.872 21.0888C101.145 19.4379 102.355 16.6468 105.028 16.6468L105.029 16.6462ZM73.1626 16.6462C74.6455 16.6462 75.16 17.5367 75.16 18.5978C75.16 20.3927 73.7516 21.4876 71.5485 21.4876C70.7594 21.4876 69.657 21.3032 69.0064 21.0888C69.2782 19.4379 70.3509 16.6468 73.1626 16.6468V16.6462ZM14.54 0C4.87358 0 0 6.84833 0 12.5592C0 16.0171 1.32488 19.0929 4.16631 20.2393C4.63203 20.4276 5.04956 20.2459 5.18463 19.7359C5.27878 19.3831 5.50071 18.4932 5.59991 18.1227C5.73666 17.6187 5.68342 17.4415 5.30736 17.0023C4.488 16.0476 3.96455 14.8109 3.96455 13.0598C3.96455 7.9792 7.81141 3.43081 13.9813 3.43081C19.445 3.43081 22.4467 6.72982 22.4467 11.1353C22.4467 16.932 19.8508 21.8243 15.9966 21.8243C13.8681 21.8243 12.2753 20.0848 12.7859 17.9515C13.3973 15.4046 14.5821 12.6561 14.5821 10.818C14.5821 9.17265 13.6882 7.79977 11.8382 7.79977C9.66254 7.79977 7.91453 10.0238 7.91453 13.0033C7.91453 14.9012 8.56352 16.1844 8.56352 16.1844C8.56352 16.1844 6.33689 25.5065 5.94682 27.1391C5.1695 30.3905 5.82969 34.3762 5.88574 34.7789C5.9188 35.0175 6.22873 35.074 6.3694 34.894C6.57003 34.6354 9.16095 31.4738 10.0425 28.3149C10.2919 27.4205 11.4733 22.789 11.4733 22.789C12.18 24.1215 14.2458 25.295 16.4433 25.295C22.9831 25.295 27.4206 19.4031 27.4206 11.5169C27.4206 5.55354 22.3094 0 14.5406 0H14.54Z" fill="#777777"/>
</svg>
